<?xml version="1.0" encoding="utf-8"?>
<svg xmlns="http://www.w3.org/2000/svg" width="450" height="59" viewBox="0 0 450 59" fill="none">
    <rect x="281.42" y="30.0632" width="8" height="8" fill="#0A0A14"/>
    <rect x="404" y="30" width="8" height="8" fill="#0A0A14"/>
    <path d="M1.33283e-05 43.5125L1.02287e-05 37.2625L3.12501 37.2624L3.12501 34.1374L6.25001 34.1374L6.25001 31.0124L12.5 52.0124L12.5 37.8874L15.625 27.8874L15.625 24.7624L6.25 24.7624L6.25001 27.8874L5.5793e-06 27.8874L4.02949e-06 24.7624L3.125 24.7624L3.125 21.6374L18.75 21.6374L18.75 24.7624L21.875 24.7624L21.875 31.0124L18.75 31.0124L18.75 34.1374L15.625 34.1374L15.625 37.2624L9.37501 37.2624L9.37501 40.3874L21.875 40.3874L21.875 43.5124L1.33283e-05 43.5125ZM28.125 43.5124L28.125 40.3874L25 40.3874L25 37.2624L31.25 37.2624L31.25 40.3874L40.625 40.3874L40.625 31.0124L25 31.0124L25 21.6374L43.75 21.6374L43.75 24.7624L31.25 24.7624L31.25 27.8874L43.75 27.8874L43.75 31.0124L46.875 31.0124L46.875 40.3874L43.75 40.3874L43.75 43.5124L28.125 43.5124ZM56.25 43.5124L56.25 37.2624L62.5 37.2624L62.5 43.5124L56.25 43.5124ZM78.125 43.5124L78.125 40.3874L84.375 40.3874L84.375 27.8874L81.25 27.8874L81.25 24.7624L84.375 24.7624L84.375 21.6374L90.625 21.6374L90.625 40.3874L96.875 40.3874L96.875 43.5124L78.125 43.5124ZM103.125 43.5124L103.125 40.3874L109.375 40.3874L109.375 27.8874L106.25 27.8874L106.25 24.7624L109.375 24.7624L109.375 21.6374L115.625 21.6374L115.625 40.3874L121.875 40.3874L121.875 43.5124L103.125 43.5124ZM131.25 43.5124L131.25 37.2624L137.5 37.2624L137.5 43.5124L131.25 43.5124ZM150 43.5124L150 37.2624L153.125 37.2624L153.125 34.1374L156.25 34.1374L156.25 31.0124L162.5 31.0124L162.5 27.8874L165.625 27.8874L165.625 24.7624L156.25 24.7624L156.25 27.8874L150 27.8874L150 24.7624L153.125 24.7624L153.125 21.6374L168.75 21.6374L168.75 24.7624L171.875 24.7624L171.875 31.0124L168.75 31.0124L168.75 34.1374L165.625 34.1374L165.625 37.2624L159.375 37.2624L159.375 40.3874L171.875 40.3874L171.875 43.5124L150 43.5124ZM181.25 43.5124L181.25 40.3874L178.125 40.3874L178.125 37.2624L175 37.2624L175 27.8874L178.125 27.8874L178.125 24.7624L181.25 24.7624L181.25 21.6374L190.625 21.6374L190.625 24.7624L193.75 24.7624L193.75 27.8874L196.875 27.8874L196.875 37.2624L193.75 37.2624L193.75 40.3874L190.625 40.3874L190.625 43.5124L181.25 43.5124ZM184.375 40.3874L190.625 40.3874L190.625 27.8874L187.5 27.8874L187.5 24.7624L181.25 24.7624L181.25 37.2624L184.375 37.2624L184.375 40.3874ZM200 43.5124L200 37.2624L203.125 37.2623L203.125 34.1374L206.25 34.1373L206.25 31.0123L212.5 31.0123L212.5 27.8873L215.625 27.8873L215.625 24.7623L206.25 24.7623L206.25 27.8873L200 27.8874L200 24.7624L203.125 24.7623L203.125 21.6374L218.75 21.6373L218.75 24.7623L221.875 24.7623L221.875 31.0123L218.75 31.0123L218.75 34.1373L215.625 34.1373L215.625 37.2623L209.375 37.2623L209.375 40.3873L221.875 40.3873L221.875 43.5123L200 43.5124ZM225 43.5123L225 37.2623L228.125 37.2623L228.125 34.1373L231.25 34.1373L231.25 31.0123L237.5 31.0123L237.5 27.8873L240.625 27.8873L240.625 24.7623L231.25 24.7623L231.25 27.8873L225 27.8873L225 24.7623L228.125 24.7623L228.125 21.6373L243.75 21.6373L243.75 24.7623L246.875 24.7623L246.875 31.0123L243.75 31.0123L243.75 34.1373L240.625 34.1373L240.625 37.2623L234.375 37.2623L234.375 40.3873L246.875 40.3873L246.875 43.5123L225 43.5123Z"
          fill="#0A0A14"/>
    <path d="M350.371 7.03649C350.366 7.06248 350.361 7.51987 350.356 8.06562L350.35 9.05317H349.363C348.822 9.05317 348.365 9.06876 348.349 9.08955C348.334 9.11034 348.323 9.50536 348.323 9.97315V10.8204L349.337 10.8464L350.35 10.8723V11.8859L350.356 12.8994L351.275 12.9098C351.78 12.915 352.195 12.9046 352.201 12.8838C352.206 12.863 352.211 12.4004 352.216 11.8599L352.221 10.8723L353.131 10.8619C353.63 10.8567 354.087 10.8515 354.145 10.8515C354.243 10.8464 354.249 10.81 354.249 9.96275C354.249 9.47418 354.238 9.07396 354.223 9.07396C354.207 9.06876 353.755 9.06356 353.209 9.05837L352.221 9.05317L352.216 8.09161C352.211 7.56145 352.206 7.09886 352.201 7.06248C352.195 7.0157 351.977 7.00011 351.286 7.00011C350.787 7.00011 350.376 7.0157 350.371 7.03649Z"
          fill="#0A0A14"/>
    <path d="M357.434 8.024L357.419 9.05313H356.421H355.418L355.413 9.3494C355.402 10.4149 355.407 10.7995 355.439 10.8307C355.454 10.8463 355.912 10.8619 356.457 10.8567L357.445 10.8515V11.8858V12.9202H358.375H359.306V12.0262C359.306 11.5324 359.311 11.0698 359.311 10.9918L359.316 10.8515H360.033C360.423 10.8515 360.875 10.8515 361.036 10.8515L361.333 10.8463L361.322 9.94712L361.317 9.05313H360.319H359.316L359.311 8.92319C359.311 8.85042 359.306 8.38784 359.311 7.89406L359.316 7.00007H358.38H357.445L357.434 8.024Z"
          fill="#0A0A14"/>
    <path d="M346.223 9.45335C346.042 9.50012 345.828 9.5521 345.756 9.56769C345.683 9.58329 345.543 9.61447 345.454 9.64566C345.361 9.67165 345.283 9.68724 345.283 9.67165C345.283 9.65605 345.241 9.67165 345.194 9.69763C345.142 9.72362 345.033 9.75481 344.945 9.7704C344.862 9.78599 344.753 9.81198 344.711 9.82757C344.669 9.84317 344.565 9.86916 344.477 9.88475C344.28 9.92633 344.165 9.95232 344.165 9.96271C344.165 9.96791 344.108 9.97831 344.04 9.9939C343.973 10.0043 343.729 10.0667 343.495 10.1238C343.261 10.1862 343.032 10.2434 342.985 10.2538C342.933 10.2642 342.85 10.285 342.803 10.2954C342.751 10.3058 342.372 10.3993 341.961 10.5033C341.551 10.6072 341.177 10.7008 341.13 10.706C341.083 10.7112 341.015 10.7372 340.984 10.7579C340.948 10.7839 340.917 10.7891 340.917 10.7735C340.917 10.7579 340.808 10.7787 340.672 10.8203C340.532 10.8619 340.366 10.9035 340.293 10.9191C340.22 10.9347 340.023 10.9814 339.851 11.0282C339.68 11.0698 339.493 11.1166 339.435 11.127C339.378 11.1374 339.227 11.1738 339.097 11.2101C338.968 11.2465 338.827 11.2829 338.786 11.2881C338.614 11.3297 337.959 11.4908 337.59 11.5844C337.377 11.6415 337.164 11.6935 337.122 11.7039C337.081 11.7143 336.883 11.7611 336.681 11.8079C336.483 11.8598 336.28 11.9014 336.239 11.9118C336.197 11.917 336.124 11.9378 336.083 11.9534C335.896 12.0262 335.178 12.1873 335.137 12.1665C335.116 12.1509 335.095 12.1665 335.095 12.2029C335.095 12.2393 335.08 12.2549 335.064 12.2393C335.049 12.2237 334.903 12.2445 334.742 12.2861C334.451 12.364 334.378 12.3796 334.155 12.4316C334.097 12.442 334.004 12.468 333.952 12.4836C333.9 12.4992 333.806 12.5251 333.749 12.5355C333.687 12.5511 333.593 12.5719 333.536 12.5875C333.292 12.6499 332.548 12.8266 332.445 12.8474C332.403 12.8578 332.367 12.8682 332.367 12.8734C332.367 12.8838 332.278 12.9046 332.081 12.9462C332.008 12.9617 331.904 12.9877 331.847 13.0033C331.79 13.0189 331.499 13.0865 331.197 13.1645C330.605 13.31 330.594 13.31 330.288 13.3931C330.173 13.4243 330.028 13.4607 329.96 13.4763C329.892 13.4867 329.601 13.5595 329.31 13.6322C329.019 13.705 328.733 13.7726 328.676 13.783C328.619 13.7934 328.572 13.8038 328.572 13.809C328.572 13.8142 328.515 13.8297 328.442 13.8453C328.245 13.8817 328.156 13.9025 328.146 13.9129C328.136 13.9233 328.115 13.9285 328.094 13.9337C327.886 13.9857 327.725 14.0221 327.637 14.0377C327.262 14.1104 326.249 14.4847 326.155 14.5886C326.14 14.6042 325.994 14.703 325.833 14.8173C325.438 15.0824 324.752 15.7581 324.752 15.8828C324.752 15.9088 324.721 15.9556 324.679 15.9868C324.565 16.0855 324.315 16.5897 324.024 17.3226C323.764 17.9723 323.702 18.1282 323.557 18.4608C323.52 18.544 323.484 18.6376 323.473 18.6687C323.468 18.6947 323.276 19.1781 323.047 19.7343C322.59 20.8569 322.569 20.9089 322.434 21.2416C322.382 21.3715 322.304 21.569 322.257 21.6834C322.21 21.7977 322.117 22.0316 322.049 22.2031C321.982 22.3746 321.909 22.5358 321.883 22.5618C321.862 22.5929 321.841 22.6449 321.841 22.6865C321.841 22.7229 321.784 22.884 321.711 23.0399C321.639 23.1959 321.581 23.3414 321.581 23.3674C321.581 23.3882 321.55 23.4765 321.509 23.5597C321.467 23.6429 321.244 24.1886 321.01 24.776C320.776 25.3633 320.552 25.9142 320.511 26.0078C320.469 26.0961 320.438 26.1845 320.438 26.2001C320.438 26.2157 320.391 26.33 320.334 26.4548C320.24 26.6575 320.116 27.0733 320.033 27.4527C319.986 27.6606 319.991 28.7521 320.038 29.012C320.121 29.4954 320.49 30.4881 320.604 30.5349C320.625 30.5453 320.646 30.5765 320.646 30.6077C320.646 30.6389 321.103 31.59 321.665 32.7231C322.226 33.8562 323.234 35.8937 323.905 37.2503C324.57 38.6068 325.147 39.7659 325.178 39.8231C325.277 39.9998 325.303 40.0518 325.88 41.2264C326.187 41.8554 326.457 42.3751 326.478 42.3855C326.498 42.3959 326.519 42.4323 326.519 42.4687C326.519 42.5051 326.675 42.8481 326.867 43.2327C327.06 43.6174 327.221 43.9396 327.221 43.9552C327.226 43.9708 327.398 44.319 327.611 44.7348C327.824 45.1507 328.011 45.5249 328.027 45.5665C328.042 45.608 328.271 46.0758 328.536 46.6112C329.154 47.8586 329.43 48.2588 330.028 48.7682C330.288 48.9917 331.036 49.4959 331.078 49.4751C331.093 49.4647 331.218 49.5063 331.447 49.5998C331.587 49.657 333.666 50.1352 334.108 50.2131C334.181 50.2287 334.238 50.2391 334.238 50.2443C334.238 50.2547 334.336 50.2755 334.576 50.3223C334.674 50.3379 334.908 50.3899 335.095 50.4314C335.282 50.4782 335.49 50.5198 335.563 50.5354C335.735 50.5614 335.901 50.5978 335.901 50.6082C335.901 50.6238 336.104 50.6601 336.249 50.6757C336.332 50.6809 336.395 50.6965 336.395 50.7121C336.395 50.7277 336.436 50.7433 336.488 50.7485C336.535 50.7485 336.857 50.8109 337.2 50.8888C337.543 50.9668 337.871 51.0396 337.928 51.05C338.048 51.0707 338.084 51.0811 338.89 51.2579C339.217 51.3306 339.57 51.4034 339.669 51.419C339.768 51.4346 339.867 51.4606 339.882 51.471C339.908 51.4866 341.203 51.7672 341.514 51.8244C341.572 51.8348 341.717 51.8712 341.842 51.9024C341.967 51.9388 342.128 51.9751 342.206 51.9855C342.284 51.9959 342.512 52.0427 342.71 52.0895C343.188 52.2038 343.24 52.2142 343.515 52.2714C344.061 52.3805 344.742 52.5261 344.815 52.5521C344.903 52.5833 345.127 52.63 345.381 52.6664C345.48 52.6768 345.574 52.6976 345.595 52.7132C345.615 52.7236 345.709 52.7496 345.808 52.7652C345.906 52.7808 346.068 52.8171 346.166 52.8431C346.265 52.8691 346.405 52.9003 346.478 52.9159C346.551 52.9315 346.728 52.9679 346.868 52.9991C347.013 53.0303 347.211 53.0666 347.31 53.0822C347.408 53.103 347.518 53.1342 347.549 53.1602C347.58 53.1862 347.616 53.1966 347.627 53.181C347.642 53.1706 347.85 53.207 348.095 53.2641C348.334 53.3213 348.588 53.3837 348.661 53.3941C348.734 53.4045 348.957 53.4513 349.155 53.498C349.358 53.5448 349.576 53.5916 349.649 53.602C349.721 53.6176 349.857 53.6488 349.955 53.6748C350.054 53.7007 350.153 53.7111 350.179 53.6955C350.2 53.68 350.22 53.6955 350.22 53.7319C350.22 53.7683 350.236 53.7787 350.252 53.7631C350.272 53.7475 350.335 53.7527 350.392 53.7839C350.449 53.8203 350.48 53.8203 350.46 53.7891C350.444 53.7631 350.527 53.7735 350.647 53.8151C351.073 53.9606 352.066 54.0126 352.637 53.9138C352.783 53.8931 352.939 53.8723 352.991 53.8671C353.038 53.8619 353.079 53.8359 353.079 53.8099C353.079 53.7839 353.095 53.7735 353.11 53.7943C353.126 53.8099 353.235 53.7891 353.349 53.7475C353.573 53.6696 354.233 53.3577 354.275 53.3109C354.29 53.2953 354.405 53.2174 354.524 53.1394C354.774 52.9783 355.215 52.5469 355.704 51.9907C355.875 51.7932 356.042 51.6061 356.073 51.5749C356.141 51.497 356.562 51.0292 356.951 50.5874C357.123 50.3951 357.346 50.1456 357.445 50.0416C357.544 49.9325 357.757 49.6934 357.913 49.5167C358.069 49.3347 358.235 49.1528 358.277 49.106C358.324 49.0593 358.531 48.8254 358.745 48.5811C358.958 48.3368 359.207 48.0665 359.29 47.9782C359.379 47.8898 359.545 47.6975 359.67 47.552C359.794 47.4116 359.966 47.2089 360.06 47.1102C360.21 46.949 360.756 46.3409 360.995 46.0654C361.208 45.8211 362.232 44.6777 362.279 44.6309C362.294 44.6153 362.492 44.397 362.721 44.1371C362.949 43.8824 363.173 43.6329 363.214 43.5862C363.292 43.503 363.901 42.8221 364.046 42.6558C364.28 42.3907 364.831 41.7722 365.044 41.5435C365.179 41.398 365.335 41.216 365.397 41.1485C365.46 41.0757 365.652 40.8574 365.829 40.6599C366.006 40.4624 366.188 40.2597 366.229 40.2129C366.754 39.6152 367.014 39.3241 367.18 39.1578C367.284 39.0434 367.373 38.9447 367.373 38.9343C367.373 38.9239 367.414 38.8667 367.466 38.8147C367.513 38.7576 367.58 38.6796 367.606 38.6432C367.742 38.4665 368.225 37.7076 368.23 37.6661C368.235 37.6505 368.308 37.4842 368.402 37.2866C368.584 36.902 368.864 36.0288 368.901 35.7429C368.916 35.6442 368.927 35.561 368.932 35.561C368.968 35.561 368.999 35.0309 368.999 34.4176C369.005 33.7159 368.973 33.2585 368.916 33.0922C368.901 33.0506 368.875 32.9414 368.864 32.8583C368.849 32.7699 368.802 32.5724 368.755 32.4165C368.708 32.2605 368.662 32.0942 368.651 32.0526C368.636 32.011 368.625 31.9695 368.62 31.9591C368.61 31.9539 368.604 31.9331 368.594 31.9071C368.589 31.8863 368.573 31.8343 368.558 31.7927C368.537 31.7512 368.474 31.5485 368.412 31.351C368.204 30.7012 368.147 30.5193 368.095 30.4154C368.069 30.3582 368.038 30.2646 368.033 30.2075C368.022 30.1503 367.996 30.0671 367.981 30.0256C367.955 29.958 367.726 29.2615 367.71 29.1939C367.705 29.1783 367.69 29.1316 367.669 29.09C367.622 28.9704 366.156 24.5005 366.146 24.4381C366.141 24.4069 366.042 24.1107 365.928 23.778C365.813 23.4454 365.735 23.1595 365.751 23.1439C365.767 23.1283 365.746 23.1127 365.709 23.1127C365.673 23.1127 365.657 23.0971 365.673 23.0763C365.694 23.0607 365.683 23.014 365.652 22.9724C365.621 22.936 365.605 22.9048 365.621 22.9048C365.642 22.9048 365.574 22.6813 365.475 22.411C365.382 22.1408 365.314 21.9173 365.33 21.9173C365.346 21.9173 365.325 21.8809 365.288 21.8289C365.247 21.7821 365.226 21.7405 365.236 21.7405C365.247 21.7353 365.112 21.2883 364.935 20.7478C364.753 20.202 364.602 19.7343 364.597 19.7083C364.592 19.6771 364.576 19.6303 364.561 19.6043C364.545 19.5731 364.478 19.3756 364.41 19.1625C364.348 18.9494 364.249 18.6531 364.197 18.5128C364.145 18.3673 363.89 17.5876 363.63 16.7716C363.365 15.9556 363.131 15.2435 363.111 15.1863C363.069 15.0928 362.996 14.8641 362.981 14.7965C362.975 14.7809 362.793 14.2196 362.57 13.5387L362.159 12.312L361.931 12.2913C361.806 12.2809 361.692 12.2809 361.681 12.2964C361.671 12.3068 361.401 12.312 361.089 12.3068L360.517 12.2964L360.569 12.468C360.6 12.5615 360.631 12.6759 360.642 12.7175C360.673 12.8422 361.297 14.7081 361.343 14.8225C361.39 14.9316 361.728 15.9452 361.733 15.992C361.738 16.0231 362.066 17.0263 362.107 17.1354C362.123 17.177 362.144 17.2342 362.149 17.2654C362.159 17.2914 362.232 17.5201 362.326 17.7696C362.414 18.0242 362.471 18.2269 362.45 18.2269C362.435 18.2269 362.445 18.2581 362.471 18.2893C362.497 18.3257 362.549 18.4608 362.586 18.5908C362.622 18.7207 362.674 18.8714 362.7 18.9286C362.721 18.9858 362.814 19.2665 362.908 19.5523C362.996 19.8382 363.09 20.1189 363.116 20.1761C363.168 20.3112 363.287 20.6854 363.292 20.7322C363.292 20.7478 363.308 20.7842 363.334 20.805C363.355 20.8258 363.37 20.8881 363.37 20.9401C363.37 20.9921 363.391 21.0752 363.422 21.1272C363.464 21.2052 364.436 24.1055 364.488 24.3082C364.498 24.3497 364.509 24.3861 364.514 24.3861C364.519 24.3861 364.529 24.4225 364.54 24.4641C364.55 24.5057 364.815 25.3269 365.138 26.2833C365.455 27.2396 365.725 28.0661 365.735 28.1128C365.746 28.1596 365.777 28.2428 365.803 28.2947C365.834 28.3467 365.855 28.4091 365.855 28.4299C365.855 28.4507 365.891 28.5702 365.933 28.6898C366.021 28.9237 366.858 31.4757 366.879 31.5589C366.884 31.5848 366.905 31.6472 366.92 31.6888C366.936 31.7304 367.004 31.9175 367.061 32.1046C367.123 32.2917 367.185 32.4788 367.201 32.5204C367.217 32.562 367.237 32.6192 367.243 32.6504C367.253 32.6763 367.295 32.8531 367.347 33.035C367.393 33.2169 367.445 33.4404 367.456 33.5288C367.508 33.8354 367.513 34.9217 367.466 35.166C367.409 35.4727 367.321 35.8521 367.284 35.9509C367.263 35.9924 367.248 36.0652 367.237 36.1068C367.201 36.2835 366.92 36.8916 366.707 37.2451C366.484 37.6193 366.437 37.6765 366.188 37.9675C366.12 38.0455 365.995 38.1962 365.902 38.3054C365.808 38.4145 365.642 38.6016 365.527 38.7264C365.413 38.8459 365.169 39.1162 364.982 39.3293C364.795 39.5372 364.529 39.8387 364.384 39.9998C364.244 40.1557 364.072 40.3428 364.01 40.4156C363.698 40.7742 363.599 40.8834 363.376 41.1277C362.897 41.6526 362.393 42.2192 362.253 42.3855C362.175 42.4791 362.035 42.635 361.946 42.7286C361.858 42.8221 361.64 43.0612 361.468 43.2587C361.291 43.4562 361.089 43.6797 361.026 43.7525C360.959 43.8305 360.772 44.0332 360.616 44.2151C359.852 45.0727 359.514 45.4521 359.342 45.6392C359.259 45.7328 359.046 45.9667 358.874 46.1642C358.703 46.3565 358.505 46.58 358.433 46.658C358.36 46.7359 358.173 46.9438 358.017 47.1206C357.861 47.3025 357.663 47.5208 357.575 47.6143C357.492 47.7079 357.336 47.8794 357.237 47.9938C357.071 48.1861 356.468 48.8618 356.224 49.132C356.166 49.1944 355.979 49.4023 355.808 49.5946C355.636 49.7869 355.439 50.0104 355.366 50.0884C355.293 50.1664 355.096 50.3899 354.924 50.5822C354.077 51.5281 353.978 51.6321 353.703 51.8504C353.557 51.9647 353.391 52.0739 353.323 52.0947C353.261 52.1155 353.199 52.1467 353.183 52.1726C353.167 52.1934 352.954 52.2714 352.715 52.339C352.367 52.4377 352.18 52.4637 351.832 52.4533C351.587 52.4429 351.333 52.4221 351.26 52.4065C351.187 52.3909 351.062 52.3598 350.979 52.3442C350.896 52.3338 350.813 52.313 350.797 52.3026C350.782 52.2922 350.673 52.2662 350.558 52.2506C350.444 52.2298 350.267 52.1934 350.168 52.1674C350.07 52.1415 349.929 52.1103 349.857 52.0947C349.784 52.0791 349.597 52.0427 349.441 52.0115C349.285 51.9803 349.134 51.9491 349.103 51.9388C349.077 51.9336 349.03 51.918 348.999 51.9024C348.973 51.8816 348.895 51.8764 348.833 51.8816C348.765 51.8868 348.713 51.8764 348.713 51.8556C348.713 51.8348 348.682 51.8192 348.651 51.8192C348.588 51.814 348.464 51.7932 348.167 51.7308C348.11 51.7205 347.907 51.6737 347.72 51.6269C347.528 51.5853 347.315 51.5385 347.253 51.5229C346.998 51.4814 346.135 51.2838 345.974 51.2371C345.886 51.2111 345.797 51.2007 345.787 51.2163C345.771 51.2267 345.714 51.2163 345.662 51.1903C345.61 51.1591 345.47 51.1227 345.355 51.1071C345.241 51.0863 345.09 51.0604 345.023 51.0448C344.95 51.0292 344.856 51.0084 344.815 51.0032C344.685 50.9824 343.968 50.8161 343.775 50.7589C343.677 50.7277 343.567 50.7121 343.541 50.7173C343.51 50.7225 343.386 50.7017 343.256 50.6601C343.126 50.6238 342.975 50.5874 342.918 50.577C342.861 50.5666 342.705 50.5354 342.57 50.5094C342.351 50.4574 342.086 50.4003 341.722 50.3223C341.665 50.3119 341.572 50.2911 341.514 50.2755C341.41 50.2495 340.454 50.0416 340.267 50.0052C340.21 49.9948 340.111 49.974 340.049 49.9585C339.981 49.9429 339.877 49.9221 339.815 49.9065C339.747 49.8961 339.591 49.8597 339.461 49.8285C339.331 49.8025 339.165 49.7661 339.087 49.7505C338.739 49.6882 338.645 49.6674 338.5 49.6206C338.417 49.5946 338.261 49.5582 338.162 49.5426C338.063 49.5271 337.944 49.5011 337.902 49.4907C337.86 49.4803 337.767 49.4595 337.694 49.4439C337.621 49.4283 337.341 49.3659 337.07 49.3088C336.457 49.1736 336.41 49.1632 336.187 49.1164C335.943 49.0697 335.927 49.0645 335.917 49.0489C335.906 49.0437 335.854 49.0333 335.797 49.0229C335.672 49.0073 335.433 48.9605 335.251 48.9137C335.178 48.8981 335.028 48.867 334.913 48.841C334.799 48.815 334.643 48.7734 334.57 48.7422C334.492 48.7162 334.42 48.7058 334.399 48.7214C334.383 48.737 334.331 48.7318 334.279 48.711C334.227 48.685 334.118 48.659 334.03 48.6487C333.947 48.6383 333.806 48.6071 333.718 48.5811C333.635 48.5551 333.505 48.5239 333.432 48.5083C333.125 48.4563 332.044 48.2121 331.951 48.1705C331.66 48.0457 331.249 47.8274 331.249 47.791C331.249 47.7703 331.218 47.7495 331.187 47.7495C331.114 47.7495 330.417 47.0374 330.417 46.9698C330.417 46.9438 330.339 46.7879 330.241 46.6112C330.142 46.4397 330.048 46.2473 330.028 46.1798C330.007 46.1122 329.96 46.0239 329.924 45.9823C329.887 45.9407 329.841 45.8471 329.82 45.7744C329.799 45.7016 329.752 45.608 329.716 45.5665C329.674 45.5249 329.638 45.4625 329.633 45.4365C329.612 45.3378 329.404 44.9168 329.368 44.9012C329.342 44.8908 329.326 44.8388 329.326 44.7816C329.326 44.7296 329.305 44.6829 329.274 44.6829C329.248 44.6829 329.222 44.6569 329.222 44.6205C329.222 44.5893 328.884 43.8772 328.468 43.0404C328.053 42.2036 327.715 41.4967 327.715 41.4655C327.715 41.4343 327.694 41.4084 327.663 41.4084C327.637 41.4084 327.611 41.3876 327.611 41.3616C327.611 41.3356 326.904 39.8907 326.041 38.1494C325.178 36.4134 324.471 34.9789 324.466 34.9633C324.466 34.9477 323.858 33.7211 323.12 32.2345C322.382 30.748 321.717 29.3655 321.644 29.1679C321.535 28.8613 321.514 28.7158 321.514 28.2324C321.514 27.6502 321.587 27.3488 321.919 26.5691C322.065 26.2313 322.117 26.1013 322.122 26.0754C322.132 26.039 322.262 25.7115 322.366 25.4776C322.418 25.3581 322.465 25.2333 322.475 25.1918C322.486 25.1502 322.501 25.1034 322.517 25.0878C322.533 25.0722 322.574 24.9735 322.616 24.8591C322.652 24.75 322.735 24.5525 322.793 24.4173C322.855 24.2874 322.902 24.1678 322.907 24.1522C322.922 24.0483 323.437 22.8164 323.479 22.7905C323.505 22.7697 323.515 22.7489 323.494 22.7489C323.473 22.7489 323.635 22.3227 323.848 21.7977C324.066 21.2779 324.248 20.8258 324.253 20.7998C324.263 20.7686 324.295 20.6906 324.321 20.6179C324.352 20.5451 324.482 20.228 324.607 19.9162C324.736 19.5991 324.861 19.2977 324.882 19.2405C324.908 19.1833 324.929 19.1261 324.934 19.1105C324.96 19.0326 325.033 18.8559 325.09 18.7207C325.126 18.6324 325.256 18.3205 325.376 18.019C325.677 17.2498 325.88 16.8548 326.057 16.6625C326.14 16.5741 326.207 16.4857 326.207 16.4649C326.213 16.4078 326.696 16.0387 326.961 15.8932C327.247 15.7373 327.491 15.6385 327.767 15.571C327.865 15.5502 328.042 15.5086 328.156 15.4774C328.437 15.4098 328.442 15.4098 329.456 15.1603C329.944 15.0356 330.371 14.9368 330.407 14.9368C330.438 14.9368 330.469 14.9161 330.469 14.8901C330.469 14.8641 330.49 14.8537 330.516 14.8693C330.537 14.8849 330.729 14.8485 330.942 14.7913C331.156 14.7341 331.384 14.677 331.457 14.6666C331.53 14.651 331.67 14.6198 331.769 14.5938C332.024 14.5262 332.855 14.3131 333.105 14.256C333.157 14.2456 333.879 14.0636 334.705 13.8609C335.537 13.653 336.254 13.4763 336.306 13.4659C336.405 13.4451 336.556 13.4035 336.696 13.3672C336.966 13.2996 337.684 13.1229 337.762 13.1021C337.814 13.0917 337.902 13.0709 337.954 13.0553C338.006 13.0397 338.094 13.0137 338.146 13.0033C338.198 12.9929 338.437 12.9358 338.682 12.8734C338.926 12.811 339.17 12.7538 339.227 12.7434C339.285 12.7331 339.331 12.7227 339.331 12.7175C339.331 12.7123 339.383 12.7019 339.446 12.6863C339.513 12.6759 339.732 12.6187 339.94 12.5667C340.147 12.5096 340.376 12.4524 340.449 12.4368C340.522 12.4212 340.672 12.3848 340.787 12.3536C340.901 12.3224 341.041 12.2861 341.099 12.2705C341.156 12.2549 341.249 12.2341 341.306 12.2289C341.364 12.2185 341.608 12.1613 341.852 12.0937C342.097 12.0314 342.33 11.9742 342.372 11.9638C342.414 11.9534 342.731 11.8754 343.074 11.7923C343.417 11.7039 343.755 11.6208 343.827 11.6052C344.046 11.5584 344.628 11.4129 344.711 11.3817C344.753 11.3661 344.825 11.3453 344.867 11.3401C344.95 11.3245 345.22 11.2673 345.309 11.2413C345.34 11.2361 345.454 11.1997 345.569 11.1686C345.683 11.1374 345.834 11.101 345.906 11.0854C345.979 11.0698 346.208 11.0178 346.421 10.9659L346.811 10.8723V10.103L346.816 9.339L346.686 9.34939C346.613 9.35459 346.405 9.40137 346.223 9.45335Z"
          fill="#0A0A14"/>
    <path d="M331.94 22.5567C331.904 22.6139 331.904 37.2764 331.94 37.3388C331.956 37.3596 332.866 37.3804 333.957 37.3804L335.953 37.3752V34.3242C335.953 32.2867 335.969 31.2732 336.005 31.268C336.031 31.2628 337.476 31.2576 339.217 31.2576C341.291 31.2524 342.372 31.2628 342.377 31.2991C342.377 31.3251 342.382 32.7077 342.388 34.3657L342.398 37.3752H344.399H346.4L346.411 29.9426L346.416 22.51L344.409 22.5152H342.398L342.388 24.8541C342.382 26.1379 342.377 27.3438 342.377 27.5309L342.372 27.8687L339.368 27.8583C337.72 27.8531 336.275 27.8479 336.161 27.8479L335.948 27.8427L335.953 25.2803C335.953 23.8769 335.948 22.6763 335.937 22.6191C335.922 22.5152 335.891 22.51 333.947 22.51C332.824 22.51 331.956 22.5308 331.94 22.5567Z"
          fill="#0A0A14"/>
    <path d="M348.334 22.5669C348.302 22.6657 348.323 37.2762 348.36 37.3282C348.396 37.3906 360.59 37.3958 360.652 37.3386C360.668 37.3178 360.688 36.5538 360.688 35.639L360.694 33.9757H359.914C359.488 33.9757 357.611 33.9705 355.745 33.9705H352.357V28.2947C352.357 25.171 352.357 22.5929 352.357 22.5617C352.351 22.4838 348.36 22.489 348.334 22.5669Z"
          fill="#0A0A14"/>
</svg>
