<?xml version="1.0" encoding="utf-8"?>
<svg width="24" height="24" viewBox="0 0 24 24" fill="rgba(25, 76, 184, 1)" xmlns="http://www.w3.org/2000/svg">
    <path fill-rule="evenodd" clip-rule="evenodd"
          d="M3.93563 9.68137C3.98375 9.75371 4.03173 9.82621 4.08001 9.89857C3.79125 9.88951 3.48745 9.86123 3.42859 9.73675C3.42981 9.73055 3.43103 9.72427 3.43257 9.71815C3.59473 9.67531 3.73391 9.67269 3.93563 9.68137ZM5.47647 10.341C5.49947 10.4125 5.52315 10.4838 5.54617 10.5551C5.49145 10.5575 5.43715 10.5599 5.38287 10.5622C5.39591 10.4893 5.40915 10.4163 5.42175 10.3434C5.44019 10.3425 5.45801 10.3419 5.47647 10.341ZM6.03431 11.9053C5.88959 12.0396 5.77713 12.1293 5.69119 12.3317C5.57123 12.2335 5.50965 12.0378 5.47109 11.8189C5.42933 11.5812 5.41473 11.3161 5.38287 11.118C5.38635 11.0843 5.38969 11.0506 5.39305 11.0168C5.44913 11.0126 5.50523 11.0085 5.56105 11.0045C5.70337 11.276 5.84621 11.5472 5.98905 11.8189C6.00417 11.8476 6.01903 11.8763 6.03431 11.9053ZM5.81715 9.89857C5.83539 9.77635 5.85385 9.65445 5.87297 9.53253C5.87687 9.50809 5.88035 9.48349 5.88361 9.45921C5.90207 9.45829 5.92031 9.45739 5.93833 9.45617C5.89751 9.60373 5.85711 9.75099 5.81715 9.89857ZM5.70063 7.90779C5.95653 7.97759 6.21243 8.04753 6.46859 8.11749C6.46737 8.12909 6.46639 8.14071 6.46541 8.15217C6.10781 8.41649 5.77735 8.53389 5.60001 9.01377C5.62231 8.65743 5.64497 8.30111 5.66713 7.94477C5.67821 7.93229 5.68929 7.92011 5.70063 7.90779ZM6.41791 6.80179C6.36755 7.29875 6.43791 7.51901 6.52415 7.82727C6.66111 7.92561 6.71499 7.98415 6.67041 8.12899C6.43979 8.01439 6.19625 7.89419 5.84351 7.91279C5.83457 7.90295 5.82575 7.89313 5.81715 7.88345C5.91669 7.49111 6.10919 7.25043 6.25861 6.93969C6.31179 6.89359 6.36473 6.84763 6.41791 6.80179ZM7.52097 6.14053C7.53211 6.13989 7.54341 6.13897 7.55431 6.13819C7.44857 6.50471 7.40595 7.35077 7.22053 7.68659C6.78329 7.47823 6.79165 6.57611 7.28149 6.21975C7.36145 6.19321 7.44113 6.16681 7.52097 6.14053ZM7.11311 8.85705C7.23603 8.99113 7.35869 9.12523 7.48173 9.25945C7.33725 9.70719 7.06277 10.0444 6.94729 10.5622C6.87435 10.5567 6.80205 10.5512 6.72911 10.5459C6.54347 10.0236 7.00889 9.17319 7.08789 8.79257C7.20159 8.80589 7.31515 8.81893 7.42911 8.83237C7.47089 8.93955 7.51265 9.04675 7.55431 9.15407C7.40741 9.05507 7.26013 8.95591 7.11311 8.85705ZM8.12145 6.13819C8.08441 6.57243 8.17951 6.79727 8.20573 7.13447C7.98871 7.24473 7.77119 7.35525 7.55431 7.46539C7.60887 6.91147 7.72023 6.54651 7.87225 6.15679C7.95539 6.15051 8.03855 6.14435 8.12145 6.13819ZM8.37463 5.47773C8.39079 5.47651 8.40711 5.47565 8.42287 5.47461C8.39905 5.54527 8.37463 5.61595 8.34947 5.68645C8.30201 5.68957 8.25357 5.69269 8.20573 5.69581C8.24225 5.65215 8.27951 5.60815 8.31699 5.56433C8.33639 5.53541 8.35543 5.50665 8.37463 5.47773ZM8.42287 7.50461C8.20601 7.63891 7.98867 7.77351 7.77145 7.90779C7.78463 7.66347 8.09387 7.33557 8.35213 7.24419C8.37201 7.25503 8.39117 7.26587 8.41131 7.27673C8.41503 7.35263 8.41889 7.42871 8.42287 7.50461ZM8.85715 5.98017C8.81789 6.20449 8.77863 6.42881 8.73983 6.65313C8.69905 6.67889 8.65817 6.70439 8.61785 6.73003C8.59643 6.75413 8.57511 6.77797 8.55345 6.80179C8.43531 6.63497 8.40613 6.22667 8.43115 5.91699C8.57339 5.93819 8.71527 5.95925 8.85715 5.98017ZM9.29145 5.47523C9.29051 5.48263 9.28969 5.48983 9.28877 5.49703C9.23305 5.55037 9.17767 5.60381 9.12229 5.65723C9.01177 5.69995 8.99793 5.69815 8.85715 5.69345C8.87623 5.62047 8.89637 5.54749 8.91625 5.47461C9.04121 5.47479 9.16649 5.47497 9.29145 5.47523ZM9.72573 4.58981C9.66113 4.73713 9.59651 4.88459 9.53191 5.03221C9.30691 5.01589 9.08203 4.99957 8.85715 4.98311C8.85841 4.97123 8.85927 4.95937 8.86051 4.94735C9.13795 4.81843 9.38095 4.66591 9.72573 4.58981ZM9.37493 5.73797C9.39885 5.72387 9.42267 5.70991 9.44659 5.69581C9.46721 5.76963 9.48799 5.84325 9.50859 5.91699C9.43621 5.90281 9.36365 5.88863 9.29145 5.87435C9.31913 5.82889 9.34689 5.78335 9.37493 5.73797ZM9.94287 6.39251C9.68421 6.49357 9.32667 6.46579 9.11989 6.58059C9.10485 6.49189 9.08981 6.40347 9.07431 6.31477C9.11989 6.25595 9.16457 6.19701 9.20955 6.13819C9.42861 6.22437 9.64751 6.31111 9.86611 6.39743C9.89175 6.39589 9.91723 6.39421 9.94287 6.39251ZM9.38751 6.79051C9.28915 6.79423 9.19051 6.79801 9.09259 6.80179C9.08595 6.77057 9.08065 6.73933 9.07431 6.70811C9.28179 6.62325 9.63025 6.61505 9.94287 6.58059C9.83287 6.64139 9.72329 6.70219 9.61313 6.76307C9.53793 6.77215 9.46301 6.78129 9.38751 6.79051ZM10.16 6.79045C9.91127 6.85257 9.67299 7.07265 9.51045 7.24419C9.47861 7.04441 9.86167 6.69079 10.0452 6.58059C10.1267 6.65339 10.1352 6.64577 10.16 6.79045ZM10.5943 4.14741C10.5933 4.15929 10.5922 4.17073 10.5911 4.18245C10.5041 4.23499 10.4169 4.28769 10.3301 4.34023C10.201 4.34965 10.0719 4.35921 9.94287 4.36861C9.94441 4.35717 9.94555 4.34531 9.94667 4.33387C10.1628 4.27163 10.3788 4.20951 10.5943 4.14741ZM10.243 4.81101C10.2154 4.76969 10.1879 4.72835 10.16 4.68703C10.3556 4.52107 10.7885 4.61255 11.0286 4.63699C10.7666 4.69499 10.5051 4.75311 10.243 4.81101ZM12.1862 4.15953C12.5493 4.18933 12.8809 4.27575 13.1328 4.43375C13.1551 4.43227 13.1776 4.43113 13.2 4.42975C13.1867 4.44883 13.173 4.46765 13.1597 4.48673C13.0438 4.52109 12.9281 4.55545 12.8125 4.58981C12.604 4.55979 12.3949 4.52965 12.1862 4.49951C11.7281 4.43353 11.2695 4.36743 10.8114 4.30145C10.8124 4.29219 10.8139 4.28317 10.8149 4.27405C11.2594 4.17049 11.7457 4.12323 12.1862 4.15953ZM13.6308 4.04287C13.6049 4.07773 13.5795 4.11271 13.5538 4.14741C13.3197 4.13061 13.1263 4.03833 12.9829 3.92621C13.2001 3.95391 13.4169 3.98187 13.6343 4.00969C13.6332 4.02083 13.6319 4.03185 13.6308 4.04287ZM14.7873 4.86059C14.847 4.83755 14.9075 4.81453 14.9676 4.79161C15.0299 4.84555 15.0917 4.89987 15.1543 4.95381C15.1291 5.13759 14.9519 5.28877 14.8164 5.46817C14.7817 5.47023 14.7472 5.47243 14.7123 5.47461C14.4288 5.00389 14.0716 4.48781 13.4446 4.30659C13.4354 4.28779 13.4264 4.26901 13.4171 4.25021C13.5019 4.21603 13.586 4.18161 13.6706 4.14741C14.0962 4.29665 14.4511 4.52321 14.8467 4.65403C14.8974 4.77767 14.8816 4.73597 14.7873 4.86059ZM15.3115 5.90903C15.295 5.89289 15.2787 5.87629 15.2622 5.85993C15.2259 5.86215 15.1903 5.86523 15.1543 5.86789C15.2138 5.81061 15.2737 5.75309 15.3341 5.69581C15.3258 5.76681 15.3191 5.83825 15.3115 5.90903ZM15.5029 8.35017C15.7967 8.60573 15.8718 8.97537 15.7494 9.45617C15.6234 9.17121 15.4979 8.88625 15.3714 8.60129C15.4132 8.53803 15.4541 8.47465 15.4953 8.41115C15.4979 8.39087 15.5 8.37033 15.5029 8.35017ZM15.5886 6.36191C15.5872 6.37561 15.5865 6.38931 15.5849 6.40301C15.5337 6.46209 15.4822 6.52135 15.4306 6.58059C15.4108 6.54137 15.3914 6.50199 15.3714 6.46277C15.4638 6.29599 15.3974 6.38555 15.5187 6.36791C15.5418 6.36585 15.5651 6.36363 15.5886 6.36191ZM15.7691 6.35939C15.9983 6.44467 16.2285 6.53011 16.4571 6.61539C16.4557 6.63843 16.4531 6.66163 16.451 6.68467C16.3931 6.72385 16.3352 6.76289 16.2773 6.80179C16.0475 6.71651 15.8183 6.63109 15.5886 6.54595C15.5908 6.52275 15.5929 6.49957 15.595 6.47651C15.6529 6.43733 15.7109 6.39829 15.7691 6.35939ZM17.1086 7.24419C16.9815 7.15903 16.8545 7.07433 16.7273 6.98963C16.7094 6.95529 16.692 6.92081 16.6743 6.88663C16.8397 6.78469 16.8158 6.78977 16.9909 6.82367C17.0297 6.96383 17.0691 7.10387 17.1086 7.24419ZM17.3257 7.16011C17.3004 7.18813 17.275 7.21605 17.2494 7.24419C17.1564 7.19647 17.1401 7.13533 17.1086 7.02299C17.175 7.05177 17.2411 7.08077 17.3076 7.10979C17.3138 7.12655 17.3198 7.14333 17.3257 7.16011ZM17.1635 6.52751C17.1444 6.52883 17.127 6.52993 17.1086 6.53149C17.1681 6.47419 17.2284 6.41691 17.2892 6.35939C17.2471 6.41559 17.2043 6.47133 17.1635 6.52751ZM18.1943 7.64013C18.1587 7.65567 18.1233 7.67121 18.0884 7.68659C17.894 7.57719 17.7003 7.46797 17.5071 7.35843C17.4466 7.27603 17.386 7.19333 17.3257 7.11061C17.6269 6.88683 17.6374 7.14577 17.9215 7.28701C18.012 7.40487 18.1032 7.52275 18.1943 7.64013ZM18.4114 7.83479C18.3391 7.80847 18.2668 7.78215 18.1943 7.75581C18.2378 7.73303 18.2817 7.70981 18.3252 7.68659C18.354 7.73613 18.3827 7.78547 18.4114 7.83479ZM18.1473 8.19143C18.2257 8.35069 18.2251 8.30537 18.4114 8.28209C18.3005 8.37851 18.1891 8.47495 18.0776 8.57137C17.9719 8.36805 17.866 8.16455 17.76 7.96153C17.7611 7.94871 17.7625 7.93621 17.764 7.92339C17.9982 7.87291 18.0739 7.95809 18.3025 7.99201C18.332 8.03937 18.3618 8.08687 18.3913 8.13439C18.3104 8.15361 18.2289 8.17253 18.1473 8.19143ZM18.1943 8.58827C18.339 8.50869 18.4836 8.42965 18.6286 8.35017C18.5415 8.54677 18.4286 8.64837 18.2942 8.79257C18.2612 8.72443 18.2278 8.65631 18.1943 8.58827ZM19.0629 9.43249C18.9453 9.53471 18.8689 9.56773 18.646 9.58595C18.7055 9.59243 18.7655 9.59929 18.825 9.60589C18.8237 9.61673 18.8226 9.62715 18.8215 9.63785C18.6178 9.72463 18.4139 9.81153 18.2098 9.89857C18.2042 9.63547 18.1995 9.37253 18.1943 9.10957C18.3346 8.94249 18.4758 8.77543 18.6162 8.60809C18.6423 8.59595 18.6674 8.58379 18.6931 8.57137C18.8162 8.85851 18.9401 9.14575 19.0629 9.43249ZM18.8457 8.22283C20.0446 7.88637 19.813 8.52607 19.278 9.01377C19.1337 8.75021 18.9892 8.48627 18.8457 8.22283ZM19.9314 8.35017C19.4897 10.4367 19.4044 10.5505 17.8423 11.4469C17.8152 11.4055 17.7875 11.3641 17.76 11.3227C17.7787 11.2451 17.7968 11.1676 17.8152 11.09C18.8341 10.7976 19.4136 10.2618 19.3532 9.04697C19.5235 8.82721 19.6936 8.60759 19.8637 8.38783C19.8865 8.37527 19.9089 8.36287 19.9314 8.35017ZM19.9846 8.35017C19.9673 8.27817 19.9495 8.20599 19.9314 8.13391C19.9859 8.13217 20.0402 8.13053 20.094 8.12899C20.0576 8.20281 20.0212 8.27653 19.9846 8.35017ZM17.3257 10.3791C17.3306 10.3023 17.3358 10.2254 17.3411 10.1487C17.3453 10.0828 17.3495 10.0168 17.3541 9.95101C17.4042 9.93435 17.4547 9.91755 17.5049 9.90103C17.5121 9.90035 17.5192 9.89939 17.5262 9.89857C17.5686 10.1595 17.5266 10.353 17.4398 10.5622C17.367 10.5154 17.3528 10.4955 17.3257 10.3791ZM16.4571 12.3145C16.4585 12.3018 16.4594 12.289 16.4605 12.2763C16.5557 12.0479 16.6506 11.8197 16.7454 11.5914C16.7649 11.5431 16.7854 11.4949 16.8055 11.4469C16.9722 11.4583 17.1401 11.4696 17.3069 11.4809C17.3143 11.5189 17.3195 11.5556 17.3223 11.5914C17.3444 11.8515 17.2548 12.0598 17.1622 12.3317C16.9272 12.3258 16.6925 12.3204 16.4571 12.3145ZM16.6743 13.2026C16.6761 13.0885 16.6783 12.9743 16.6804 12.8603C16.6833 12.8315 16.6861 12.8027 16.6887 12.7741C16.8111 12.7832 16.933 12.7925 17.0551 12.8016L17.1086 12.7975C17.0246 12.937 16.941 13.0767 16.8577 13.2165C16.7962 13.2119 16.7354 13.2072 16.6743 13.2026ZM16.4593 11.7712C16.4666 11.7674 16.474 11.7635 16.4815 11.7596C16.5394 11.7298 16.5973 11.6999 16.6552 11.67C16.6615 11.6694 16.6678 11.6688 16.6743 11.6681C16.6652 11.6986 16.6568 11.729 16.6482 11.7597C16.6146 11.8767 16.5812 11.9937 16.5476 12.1105C16.5179 12.0066 16.4872 11.9025 16.4571 11.7983C16.4578 11.7891 16.4583 11.7801 16.4593 11.7712ZM16.1206 12.8726C16.088 12.8396 16.0548 12.8066 16.0229 12.7741C16.1184 12.8409 16.0561 12.7757 16.1206 12.8726ZM15.5886 12.6095C15.7104 12.5319 15.8425 12.5558 16.0229 12.5585C16.0048 12.6173 15.9874 12.6764 15.9695 12.7352C15.821 12.7947 15.8 12.7728 15.6311 12.7554C15.6171 12.7068 15.6032 12.6581 15.5886 12.6095ZM15.8544 13.4377C15.9108 13.5706 15.967 13.7036 16.0229 13.8364C15.8929 13.9248 15.7628 14.013 15.6326 14.1013C15.5165 13.9418 15.6435 13.4929 15.8544 13.4377ZM15.4259 12.0495C15.4081 12.0508 15.3901 12.0519 15.3714 12.0535C15.3955 11.9986 15.419 11.944 15.4427 11.8893C15.4377 11.9424 15.4316 11.996 15.4259 12.0495ZM16.0511 12.1105C16.0421 12.1044 16.0323 12.0984 16.0229 12.0923C16.055 12.0251 16.0862 11.9579 16.1183 11.8907C16.1284 11.8902 16.1394 11.8898 16.1498 11.8893C16.1796 11.9601 16.2101 12.0309 16.24 12.1017C16.1771 12.1047 16.1142 12.1077 16.0511 12.1105ZM17.5547 9.23497C17.5511 9.21011 17.547 9.18501 17.5429 9.16007C17.6001 9.09017 17.6366 9.04663 17.7348 9.01377C17.7433 9.05723 17.7519 9.10093 17.76 9.14463C17.718 9.17275 17.6757 9.20093 17.6337 9.22935C17.6073 9.23125 17.581 9.23315 17.5547 9.23497ZM17.5429 9.77517C17.5037 9.82719 17.4341 9.85655 17.3844 9.89857C17.3647 9.52995 17.3449 9.16133 17.3257 8.79257C17.398 9.12035 17.4704 9.44783 17.5429 9.77517ZM17.1445 11.2576C17.2882 11.1774 17.3084 11.2515 17.3257 11.4469C17.1805 11.4467 17.0364 11.4461 16.8914 11.4458C16.8939 11.4229 16.8963 11.4003 16.8984 11.3777C16.9804 11.3375 17.0623 11.2976 17.1445 11.2576ZM16.9315 10.6462C16.9639 10.6183 16.9965 10.5901 17.0296 10.5622C17.0558 10.6098 17.0824 10.6575 17.1086 10.705C17.0962 10.7311 17.0844 10.7572 17.0717 10.7833C17.0117 10.7765 16.9517 10.7694 16.8914 10.7623C16.905 10.7236 16.9182 10.6849 16.9315 10.6462ZM16.8914 11.2328C16.8162 11.3041 16.7406 11.3757 16.665 11.4469C16.6159 11.4387 16.5667 11.4307 16.5176 11.4223C16.497 11.4244 16.477 11.4264 16.4571 11.4283C16.4927 11.3606 16.5274 11.2931 16.563 11.2257C16.6724 11.2282 16.782 11.2306 16.8914 11.2328ZM16.0719 11.1072C15.9816 11.0437 16.0471 11.0523 16.0298 11.0045C16.0437 11.0386 16.058 11.0729 16.0719 11.1072ZM16.7568 10.1198C16.5123 9.99243 16.2677 9.86497 16.0229 9.73751C16.057 9.23177 16.1187 8.65057 16.0688 8.12899C16.6348 8.33553 17.1419 9.25965 16.7568 10.1198ZM16.24 10.1198C16.4207 10.215 16.4102 10.3032 16.6606 10.38C16.7044 10.5439 16.6378 10.6086 16.5338 10.7833C16.4454 10.7798 16.3566 10.7761 16.2678 10.7724C16.2128 10.4813 16.2723 10.3138 16.24 10.1198ZM16.2897 11.5496C16.1987 11.4863 16.2639 11.4947 16.2471 11.4469C16.261 11.4814 16.2749 11.5157 16.2897 11.5496ZM17.76 9.42057C17.7607 9.40701 17.7614 9.39345 17.7622 9.38007C17.8275 9.33153 17.8926 9.28351 17.9579 9.23497C17.9924 9.46139 17.9793 9.83845 17.928 10.1198C17.8124 10.0284 17.7911 9.64415 17.76 9.42057ZM17.76 10.1195C17.8043 10.0459 17.8479 9.97223 17.8912 9.89857C17.8653 9.97067 17.8395 10.043 17.8149 10.1156C17.7965 10.1171 17.7785 10.1186 17.76 10.1195ZM19.0262 9.45829C19.0389 9.45751 19.0509 9.45683 19.0627 9.45617C19.0731 10.3034 18.5528 10.4576 17.8687 10.7764C17.8324 10.7788 17.7963 10.7812 17.76 10.7833C17.9019 10.4875 18.0438 10.1916 18.1861 9.89581C18.4661 9.74997 18.7464 9.60441 19.0262 9.45829ZM17.7393 7.80285C17.7463 7.82465 17.7533 7.84661 17.76 7.86855C17.742 7.88173 17.7236 7.89475 17.7057 7.90779C17.6512 7.83401 17.5971 7.76037 17.5429 7.68659C17.6087 7.72539 17.6741 7.76419 17.7393 7.80285ZM17.5429 8.17077C17.5458 8.15791 17.5467 8.14473 17.5488 8.13219C17.5647 8.13107 17.5807 8.12995 17.5967 8.12899C17.6514 8.20293 17.7056 8.27655 17.76 8.35017C17.6345 8.28957 17.6136 8.27495 17.5429 8.17077ZM17.76 8.73609C17.6623 8.82861 17.5644 8.92125 17.4668 9.01377C17.257 8.70821 17.0477 8.40223 16.8381 8.09667C16.5669 7.85975 16.2944 7.62257 16.0229 7.38551C16.0833 7.33845 16.143 7.29125 16.2026 7.24419C16.597 7.41581 17.2875 7.74269 17.4265 8.15057C17.4717 8.28317 17.316 8.39285 17.4221 8.50387C17.5479 8.63527 17.674 8.54155 17.76 8.73609ZM15.9273 10.1198C15.949 10.1285 15.9715 10.1373 15.9935 10.146C16.0033 10.3585 16.0129 10.571 16.0229 10.7833C15.9889 10.7755 15.9555 10.7676 15.9212 10.7597C15.8258 10.6889 15.759 10.3595 15.8464 10.2165C15.8731 10.1843 15.9004 10.1521 15.9273 10.1198ZM15.4464 11.2285C15.4695 11.2276 15.4934 11.2266 15.5164 11.2257C15.5403 11.2834 15.5649 11.341 15.5886 11.3988C15.5517 11.4133 15.5142 11.428 15.4768 11.4425C15.4418 11.444 15.4072 11.4455 15.3714 11.4469C15.3967 11.3742 15.4218 11.3014 15.4464 11.2285ZM15.2478 14.7649C15.2168 14.6576 15.1853 14.5498 15.1543 14.4421C15.2881 14.4031 15.4216 14.364 15.5556 14.3248C15.5663 14.3243 15.5778 14.3234 15.5886 14.3225C15.5871 14.3325 15.586 14.3428 15.5852 14.3528C15.4728 14.4904 15.3604 14.6275 15.2478 14.7649ZM14.9371 13.8801C14.9766 13.7506 15.0057 13.7308 15.0773 13.6589C15.0974 13.6667 15.1177 13.6745 15.1377 13.6821C15.1432 13.7012 15.1487 13.7203 15.1543 13.7394C15.1097 13.7834 15.0652 13.8273 15.0208 13.8715C14.9926 13.8742 14.9649 13.8773 14.9371 13.8801ZM15.0393 14.1013C15.0054 14.0637 14.9712 14.026 14.9371 13.9885C15.0093 13.9523 15.0822 13.9162 15.1543 13.8801C15.1357 13.9527 15.1167 14.0252 15.0978 14.0976C15.0784 14.0989 15.0588 14.1001 15.0393 14.1013ZM14.8105 15.1052C14.7802 15.0802 14.75 15.0553 14.72 15.0302C14.7421 15.0289 14.765 15.0274 14.787 15.0261C14.8989 14.939 15.0104 14.8519 15.1218 14.7649C15.1325 14.8537 15.1437 14.9425 15.1543 15.031C15.0692 15.0896 14.9832 15.1487 14.8976 15.2073C14.8686 15.1732 14.8398 15.1393 14.8105 15.1052ZM14.8269 17.638C14.3044 17.6605 13.9923 17.5266 13.5645 17.4888C13.4018 17.1654 13.2392 16.8412 13.0765 16.5178C13.0453 16.4852 13.014 16.4528 12.9829 16.4205C13.8033 16.3226 14.3191 15.9246 14.9269 15.6497C15.1422 15.8548 15.6295 16.9028 15.2003 17.3667C15.0983 17.5254 14.9828 17.5411 14.8269 17.638ZM12.5822 16.5473C12.6474 16.5432 12.7131 16.5388 12.7789 16.5345C13.0746 16.7337 13.2761 17.091 13.4171 17.4193C13.1277 17.3356 12.8378 17.2511 12.5486 17.1669C12.613 16.9459 12.6402 16.7212 12.5822 16.5473ZM11.9583 15.7122C12.2844 15.6174 12.61 15.5232 12.9361 15.4285C13.449 15.479 13.9617 15.5296 14.4749 15.5798C14.4841 15.606 14.4936 15.6318 14.5029 15.6577C14.0445 15.8648 13.5234 16.0394 12.9979 16.3071C12.4286 16.3526 12.2916 16.139 11.8971 15.9985C11.9179 15.9028 11.9383 15.8078 11.9583 15.7122ZM11.8971 16.7544C11.9038 16.6906 11.9101 16.6266 11.9167 16.5626C12.0414 16.5533 12.166 16.5438 12.2911 16.5345C12.3218 16.7014 12.3547 16.7945 12.3085 16.9769C12.1714 16.9028 12.0344 16.8285 11.8971 16.7544ZM11.4629 17.101C11.5113 17.0737 11.56 17.047 11.6083 17.0198C11.7867 16.9011 11.9212 17.0597 12.1143 17.1219C12.0886 17.147 12.063 17.1726 12.0374 17.1981C11.8458 17.1658 11.6543 17.1332 11.4629 17.101ZM11.8845 16.7557C11.8373 16.7344 11.7902 16.7128 11.7432 16.691C11.7221 16.6392 11.7009 16.5865 11.68 16.5345C11.7523 16.5391 11.8247 16.5436 11.8971 16.5481C11.893 16.6175 11.8886 16.6865 11.8845 16.7557ZM11.2457 16.7557C11.3182 16.8183 11.3904 16.8805 11.4629 16.9427C11.4624 17.0586 11.4525 17.0454 11.4266 17.1981C11.3663 17.0505 11.3062 16.9033 11.2457 16.7557ZM10.6825 15.9263C10.8863 15.8642 11.1582 15.8779 11.4629 15.8709C11.3682 15.9447 11.2742 16.0184 11.1793 16.0921C10.9843 16.0728 10.7892 16.0538 10.5943 16.0344C10.6237 15.9984 10.6532 15.9623 10.6825 15.9263ZM10.16 4.84127C10.5631 4.45399 11.5748 4.56971 11.8284 4.81561C11.8513 4.81375 11.8744 4.81157 11.8971 4.80957C11.5597 5.12539 11.0374 5.16197 10.7166 5.47461C10.4652 5.30621 10.2572 5.19835 10.16 4.84127ZM12.3779 5.47461C12.4349 5.53955 12.4916 5.60449 12.5486 5.66931C12.3965 5.67831 12.2365 5.68743 12.0773 5.70085C11.7179 5.73153 11.363 5.78551 11.115 5.91479C11.1044 5.91565 11.0936 5.91627 11.083 5.91699C11.0647 5.88865 11.0466 5.86043 11.0286 5.83235C11.3327 5.67695 11.6644 5.55199 12.0773 5.49949C12.1631 5.48865 12.2524 5.48089 12.3459 5.47683C12.3569 5.47595 12.3674 5.47509 12.3779 5.47461ZM13.2238 4.36861C13.5045 4.65203 13.924 4.81935 14.0686 5.25341C13.479 4.97815 12.5736 4.98217 12.1143 4.54443C12.5195 4.63119 12.8636 4.59899 13.2238 4.36861ZM13.4171 5.91699C13.6861 5.95409 13.9546 5.99117 14.2226 6.02795C14.2441 6.02645 14.265 6.02449 14.2857 6.02269C14.0707 6.20871 13.8554 6.39457 13.6399 6.58059C13.5385 6.37567 13.5139 6.09791 13.4171 5.91699ZM14.452 6.86307C14.3966 6.85465 14.3412 6.84603 14.2857 6.83763C14.358 6.82569 14.4304 6.81373 14.5029 6.80179C14.4859 6.82237 14.4688 6.84293 14.452 6.86307ZM14.2857 6.33447C14.3518 6.26917 14.4186 6.20387 14.4846 6.13819C14.4909 6.21187 14.4965 6.28553 14.5029 6.35939C14.455 6.34879 14.4071 6.33837 14.3588 6.32759C14.3347 6.33019 14.3098 6.33205 14.2857 6.33447ZM14.6798 13.6551C14.6479 13.6564 14.6159 13.6577 14.5845 13.6589C14.5567 13.6332 14.5299 13.6074 14.5029 13.5817C14.5238 13.5537 14.5445 13.526 14.5657 13.4981C14.6169 13.478 14.6683 13.4579 14.72 13.4377C14.7062 13.5101 14.6932 13.5825 14.6798 13.6551ZM14.5068 14.0585C14.533 14.0276 14.56 13.9969 14.5866 13.966C14.5889 13.9373 14.5912 13.9085 14.5935 13.8801C14.6358 13.9476 14.6778 14.0149 14.72 14.0822C14.6474 14.0886 14.5751 14.0951 14.5029 14.1013C14.5042 14.0872 14.5053 14.0728 14.5068 14.0585ZM14.4206 14.7649C14.3757 14.7108 14.331 14.6566 14.2857 14.6025C14.4303 14.5829 14.5753 14.5633 14.72 14.5437C14.651 14.6153 14.582 14.6868 14.5131 14.7585C14.4825 14.7606 14.4515 14.7625 14.4206 14.7649ZM14.5029 15.4285C14.3584 15.4111 14.2138 15.3934 14.0686 15.376C14.1704 15.3199 14.2728 15.2637 14.3747 15.2073C14.4174 15.2808 14.4605 15.3546 14.5029 15.4285ZM14.1983 14.8044C14.2275 14.8324 14.2565 14.8602 14.2857 14.8882C14.1809 14.9154 14.0765 14.9426 13.9713 14.9696C13.8589 14.975 13.7467 14.9805 13.6343 14.9861C13.7904 14.9124 13.9473 14.8385 14.1038 14.7649C14.1356 14.7782 14.167 14.7913 14.1983 14.8044ZM12.9829 5.25341C13.2365 5.26031 13.5047 5.32497 13.6343 5.47461C13.4592 5.45717 13.1449 5.48555 13.0654 5.35003C13.0385 5.31777 13.0105 5.28551 12.9829 5.25341ZM13.2034 6.13819C13.3274 6.24713 13.3708 6.37543 13.3483 6.58059C13.157 6.51427 13.2069 6.30391 13.2034 6.13819ZM13.4171 7.53255C13.4195 7.51999 13.4214 7.50743 13.4239 7.49487C13.8565 7.40045 13.9502 7.55129 13.7529 7.68659C13.5827 7.66325 13.5049 7.59865 13.4171 7.53255ZM13.9734 13.2165C14.0048 13.2244 14.0366 13.2324 14.0686 13.2404C14.0673 13.2507 14.0662 13.2607 14.0652 13.2708C13.9937 13.3264 13.9228 13.3821 13.8514 13.4377C13.8812 13.3645 13.9109 13.2917 13.9404 13.2189C13.9519 13.2179 13.9626 13.2173 13.9734 13.2165ZM13.8537 7.82133C13.9076 7.77653 13.9617 7.73155 14.0156 7.68659C14.0332 7.76047 14.051 7.83405 14.0686 7.90779C13.9961 7.89189 13.9238 7.87585 13.8514 7.85979C13.8521 7.84693 13.853 7.83405 13.8537 7.82133ZM14.5029 13.7362C14.328 13.782 14.1532 13.8278 13.9783 13.8737C13.936 13.8758 13.8937 13.8779 13.8514 13.8801C13.8524 13.8727 13.8537 13.8653 13.8549 13.8579C14.0518 13.8193 14.1777 13.7537 14.2938 13.6589C14.355 13.6704 14.4165 13.682 14.4776 13.6936C14.486 13.7077 14.4946 13.722 14.5029 13.7362ZM14.1283 13.2165C14.1084 13.1756 14.0884 13.1348 14.0686 13.094C14.1182 13.0612 14.1682 13.0281 14.2181 12.9953C14.2408 13.0078 14.2631 13.0197 14.2857 13.0318C14.2573 13.0913 14.2285 13.1506 14.1999 13.2101C14.1762 13.2123 14.1521 13.2144 14.1283 13.2165ZM12.7657 14.7461C12.8518 14.679 12.9382 14.6114 13.0241 14.5437C13.291 14.5668 13.5574 14.5898 13.8245 14.6128C13.8335 14.6326 13.8424 14.6527 13.8514 14.6724C13.6715 14.777 13.4912 14.8816 13.3111 14.9861C13.1107 14.9532 12.9373 14.8635 12.8335 14.7414C12.811 14.7432 12.7883 14.7446 12.7657 14.7461ZM12.3636 14.7649C12.4976 14.8387 12.6319 14.9123 12.7657 14.9861C12.5486 14.9478 12.3314 14.9091 12.1143 14.871C12.1976 14.8358 12.2805 14.8004 12.3636 14.7649ZM12.3314 15.2165C12.3305 15.2347 12.3295 15.2521 12.3287 15.2701C12.2872 15.2931 12.2461 15.3161 12.205 15.3393C12.1744 15.3428 12.1446 15.3473 12.1143 15.3508C12.1153 15.3331 12.1167 15.3154 12.1177 15.2977C12.2123 15.1712 12.1962 15.2134 12.3314 15.2165ZM11.3076 6.21417C11.2872 6.19201 11.2665 6.17001 11.2457 6.14815C11.4612 6.02969 11.8015 5.97387 12.1363 5.94653C12.4119 5.92409 12.6834 5.92069 12.8775 5.91699C12.9126 6.13809 12.9479 6.35935 12.9829 6.58059C12.6997 6.54929 12.4281 6.51221 12.1363 6.49863C11.9025 6.48799 11.6557 6.49213 11.3791 6.52653C11.3558 6.42227 11.3318 6.31815 11.3076 6.21417ZM11.6269 15.0903C11.6447 15.1215 11.6622 15.1526 11.68 15.1837C11.663 15.2499 11.6459 15.3163 11.6289 15.3824C11.4289 15.3978 11.2289 15.413 11.0286 15.4285C11.0929 15.2309 11.1888 15.1362 11.292 14.9861C11.4036 15.0209 11.5151 15.0556 11.6269 15.0903ZM10.8866 14.3225C10.6139 14.3074 10.2394 14.1065 10.16 13.8801C10.4497 13.9543 10.7388 14.0285 11.0286 14.1025C10.9814 14.1759 10.9341 14.2492 10.8866 14.3225ZM11.1917 14.3108C11.1371 14.3149 11.0831 14.3186 11.0286 14.3225C11.0303 14.3053 11.0327 14.2877 11.0342 14.2701C11.0946 14.214 11.1543 14.1572 11.2147 14.1013C11.2069 14.1714 11.1993 14.241 11.1917 14.3108ZM10.5943 6.22187C10.6825 6.19403 10.7703 6.16605 10.8585 6.13819C10.9152 6.20949 10.972 6.28103 11.0286 6.35247C10.9689 6.35479 10.9099 6.35701 10.8502 6.35939C10.7651 6.31355 10.6795 6.26771 10.5943 6.22187ZM10.5909 15.7191C10.5772 15.7673 10.5636 15.8157 10.55 15.8641C10.5287 15.8658 10.5078 15.8682 10.4868 15.8709C10.4504 15.797 10.4137 15.723 10.3771 15.6497C10.4497 15.6571 10.5217 15.6645 10.5943 15.6721C10.5932 15.6877 10.5918 15.7033 10.5909 15.7191ZM10.7117 14.7649C10.8808 14.7992 11.0495 14.8337 11.2181 14.868C11.2274 14.8908 11.2366 14.914 11.2457 14.937C11.1145 15.1009 10.9835 15.2645 10.8522 15.4285C10.6943 15.4051 10.5357 15.3816 10.3771 15.3582C10.4889 15.1605 10.6003 14.9626 10.7117 14.7649ZM14.5029 7.83281C14.5355 7.78455 14.5682 7.73637 14.6009 7.68809C14.6129 7.68759 14.6244 7.68709 14.6364 7.68659C14.7275 7.70959 14.818 7.73259 14.9089 7.75559C14.9182 7.76851 14.9278 7.78161 14.9371 7.79463C14.8355 7.83223 14.7339 7.87009 14.632 7.90779C14.5891 7.88277 14.5459 7.85775 14.5029 7.83281ZM15.09 7.11789C15.0392 7.08625 14.9888 7.05485 14.9371 7.02299C15.0931 7.08051 15.0034 7.01613 15.09 7.11789ZM15.041 8.12899C15.0061 8.09941 14.9717 8.06985 14.9371 8.04019C15.0095 7.99599 15.0818 7.95179 15.1543 7.90779C15.1164 7.98135 15.0786 8.05521 15.041 8.12899ZM14.9371 9.67737C15.0496 9.70537 15.1623 9.73337 15.2747 9.76145C15.3654 9.79701 15.3634 9.80677 15.3714 9.89857C15.2263 9.84257 14.9837 9.80413 14.9371 9.67737ZM14.9701 9.07481C14.9855 9.05445 15.0014 9.03419 15.0168 9.01377C15.0628 9.08759 15.1086 9.16123 15.1543 9.23497C15.082 9.22083 15.0094 9.20675 14.9371 9.19251C14.9482 9.15335 14.9591 9.11413 14.9701 9.07481ZM10.5718 16.3526C10.5792 16.372 10.5867 16.3914 10.5943 16.4108C10.4968 16.4482 10.3991 16.4858 10.3018 16.5233C10.2547 16.5269 10.2073 16.5308 10.16 16.5345C10.1609 16.5245 10.1617 16.5145 10.1631 16.5044C10.1962 16.452 10.2292 16.3995 10.2628 16.3472C10.4013 16.2829 10.4045 16.3248 10.5718 16.3526ZM9.94287 5.25341C10.1326 5.39443 10.1812 5.56959 10.1523 6.13819C10.0272 5.97735 9.95185 5.63753 9.94287 5.25341ZM10.0679 4.81101C10.0623 4.86477 10.0569 4.91785 10.0514 4.97115C10.0152 4.97403 9.97891 4.97647 9.94287 4.97911C9.98391 4.92315 10.026 4.86741 10.0679 4.81101ZM9.94287 5.03221C9.93731 5.08551 9.93257 5.13883 9.92639 5.19213C9.85985 5.17953 9.79227 5.16713 9.72573 5.15475C9.78073 5.11537 9.83595 5.07557 9.89095 5.03619C9.90827 5.03465 9.92597 5.03353 9.94287 5.03221ZM9.94287 17.8617C9.97835 17.4862 10.0145 17.1109 10.0502 16.7355C10.3039 16.6684 10.5578 16.6015 10.8114 16.5345C10.5447 16.9637 10.2781 17.3926 10.0112 17.8213C9.98849 17.8348 9.96561 17.8485 9.94287 17.8617ZM9.99655 14.8349C10.0357 14.8115 10.0744 14.7881 10.1133 14.7649C10.2198 14.8923 10.1243 15.075 10.0244 15.2073C9.94015 15.1282 9.93103 15.0793 9.95321 14.9001C9.96755 14.8784 9.98235 14.8564 9.99655 14.8349ZM9.29145 14.7268C9.37503 14.5922 9.45845 14.4574 9.54161 14.3225C9.67551 14.4013 9.80941 14.4802 9.94287 14.5592C9.80543 14.7753 9.66697 14.9911 9.52839 15.2073C9.40359 15.096 9.32727 14.932 9.29145 14.7268ZM9.29145 16.4589C9.42441 16.3366 9.55833 16.2144 9.69145 16.0921C9.75469 16.0979 9.81809 16.1036 9.88103 16.1091C9.90159 16.1435 9.92185 16.178 9.94287 16.2125C9.92649 16.3198 9.91087 16.4272 9.89493 16.5345C9.69361 16.5092 9.49277 16.4842 9.29145 16.4589ZM8.64001 16.1587C8.79897 16.0628 8.95859 15.9669 9.11753 15.8709C9.23909 15.89 9.35997 15.9091 9.48125 15.9284C9.49009 15.945 9.49961 15.9618 9.50859 15.9788C9.38091 16.0903 9.25351 16.2017 9.12611 16.3133C8.93467 16.2933 8.80767 16.2422 8.70799 16.1548C8.68503 16.1561 8.66231 16.1574 8.64001 16.1587ZM8.57665 15.7313C8.63507 15.704 8.69319 15.6768 8.75101 15.6497C8.77589 15.6551 8.80093 15.6605 8.82597 15.6659C8.83637 15.6781 8.84677 15.6903 8.85715 15.7023C8.68895 15.7586 8.51963 15.8148 8.35127 15.8709C8.30291 15.8539 8.25455 15.8366 8.20573 15.8197C8.32969 15.7901 8.45347 15.7607 8.57665 15.7313ZM7.98859 15.5235C8.03109 15.4199 8.07385 15.3162 8.11611 15.2124C8.35417 15.1813 8.40997 15.2993 8.58801 15.3738C8.60489 15.3999 8.62251 15.4264 8.64001 15.4527C8.55143 15.5137 8.46271 15.5744 8.37413 15.6355C8.30217 15.6403 8.23033 15.645 8.15825 15.6497C8.10181 15.6077 8.04551 15.5657 7.98859 15.5235ZM7.55431 16.4314C7.65955 16.2447 7.76495 16.0576 7.87019 15.8709C8.08007 15.8706 8.10535 15.8882 8.19191 15.9997C8.22987 16.0642 8.19713 16.0296 8.11327 16.044C8.10653 16.1084 8.10055 16.1724 8.09383 16.2371C8.20387 16.2543 8.31345 16.2711 8.42287 16.2885C8.35843 16.45 8.34813 16.4287 8.25005 16.5315C7.92685 16.5491 7.78049 16.4868 7.55431 16.4314ZM7.18851 15.6497C7.37249 15.7056 7.55633 15.7612 7.74063 15.8168C7.75075 15.8386 7.76087 15.8609 7.77145 15.8829C7.65307 16.0264 7.53503 16.1699 7.41697 16.3133C7.24555 16.2567 7.07399 16.2001 6.90287 16.1438C6.99809 15.9793 7.09345 15.8145 7.18851 15.6497ZM5.06145 15.0519C5.06385 15.0298 5.06601 15.008 5.06855 14.9861C5.17117 15.0656 5.27405 15.1452 5.37655 15.2247C5.38553 15.2455 5.39439 15.2666 5.40323 15.2877C4.76217 15.7845 5.74221 17.4051 6.85761 16.3553C7.01749 16.4199 7.17699 16.4841 7.33715 16.5485C7.15257 16.8792 6.83587 17.0093 6.50225 17.1956C5.70465 17.2625 4.58859 15.9543 5.06145 15.0519ZM5.80535 15.2784C5.80941 15.3285 5.81319 15.3782 5.81715 15.4285C5.75785 15.3835 5.69891 15.3391 5.63997 15.2942C5.62647 15.2653 5.61333 15.2362 5.60001 15.2073C5.66849 15.2311 5.73687 15.2548 5.80535 15.2784ZM6.90287 16.2178C6.77065 16.3207 6.63815 16.4237 6.50565 16.5262C5.72491 16.6087 5.40837 16.0655 5.38287 15.3977C5.43375 15.336 5.48409 15.2744 5.53483 15.2124C5.55725 15.2108 5.57967 15.2089 5.60195 15.2073C5.99541 15.5187 6.34295 15.9935 6.87669 16.1506C6.88515 16.1731 6.89401 16.1955 6.90287 16.2178ZM6.14617 12.9953C6.07505 12.9431 6.07057 12.9182 6.03431 12.8307C6.08415 12.6418 6.13361 12.4525 6.18321 12.2634C6.24113 12.2125 6.29905 12.1613 6.35685 12.1105C6.39413 12.1655 6.43169 12.2202 6.46859 12.2749C6.36121 12.5151 6.25369 12.7551 6.14617 12.9953ZM6.03431 13.1868C6.14851 12.9155 6.26271 12.6442 6.37719 12.3731C6.40081 12.3591 6.42415 12.3455 6.44737 12.3317C6.60495 12.6112 6.83335 12.7379 6.90287 13.1174C6.73103 13.2979 6.55891 13.4783 6.38707 13.6589C6.22709 13.5412 6.11555 13.3875 6.03431 13.1868ZM6.68573 13.863C6.83111 13.7212 6.97609 13.5794 7.12147 13.4377C7.19309 13.5851 7.26513 13.7325 7.33715 13.8801C7.12015 13.8741 6.90313 13.8686 6.68573 13.863ZM7.77145 9.39347C7.56553 9.83527 7.29201 10.1352 7.12793 10.5622C7.05653 10.174 7.48801 9.61601 7.62715 9.27319C7.64907 9.26041 7.67125 9.24789 7.69317 9.23497C7.71935 9.28775 7.74527 9.34055 7.77145 9.39347ZM7.77145 8.17693C8.09401 8.07637 8.31083 7.89229 8.54225 7.68659C8.57471 7.78507 8.60755 7.88371 8.64001 7.98219C8.54851 8.10469 8.45735 8.22767 8.36597 8.35017C8.16763 8.29259 7.96965 8.23467 7.77145 8.17693ZM8.85715 8.19923C8.81801 8.24949 8.77867 8.29993 8.73951 8.35017C8.70649 8.34471 8.67325 8.33893 8.64001 8.33337L8.64247 8.30939C8.70831 8.24919 8.77417 8.18919 8.83963 8.12899C8.84523 8.15247 8.85145 8.17585 8.85715 8.19923ZM8.68603 7.24643C8.69745 7.24557 8.70887 7.24493 8.72029 7.24419C8.76581 7.34081 8.81163 7.43743 8.85715 7.53379C8.83983 7.58497 8.82221 7.63577 8.80515 7.68659C8.60679 7.58211 8.61477 7.45827 8.68603 7.24643ZM8.64587 13.6589C8.71233 13.7069 8.77921 13.7549 8.84631 13.8031C8.77725 13.7726 8.70885 13.7423 8.64001 13.7125C8.64153 13.6943 8.64349 13.6764 8.64587 13.6589ZM8.64245 13.8801C8.71411 13.9113 8.78563 13.9424 8.85715 13.9738C8.85585 13.9825 8.85469 13.9914 8.85365 14.0005C8.70057 14.1078 8.54659 14.2153 8.39327 14.3225C8.26075 14.2633 8.24449 14.1442 8.20573 14.0136C8.20677 14.0046 8.20807 13.9956 8.20911 13.9867C8.35359 13.951 8.49821 13.9156 8.64245 13.8801ZM7.99941 13.4377C8.06833 13.4656 8.13681 13.4932 8.20573 13.5211C8.16885 13.5428 8.13239 13.5645 8.09537 13.5859C8.05963 13.5901 8.02419 13.5939 7.98859 13.5979C7.99187 13.5448 7.99557 13.4913 7.99941 13.4377ZM7.98859 9.01377C8.24937 9.08823 8.16687 9.03871 8.17837 9.23497C8.05829 9.16481 8.05003 9.13109 7.98859 9.01377ZM7.98859 12.9651C7.99445 12.9014 8.00065 12.838 8.00669 12.7741C8.10781 12.8448 8.14239 12.8869 8.20573 12.9953C8.13299 12.985 8.06079 12.975 7.98859 12.9651ZM8.42287 10.2027C8.34143 10.3082 8.34479 10.2789 8.20573 10.341C8.23745 10.2673 8.26917 10.1935 8.30107 10.1198C8.34179 10.1474 8.38253 10.175 8.42287 10.2027ZM8.42287 9.31325C8.37741 9.36085 8.33209 9.40845 8.28663 9.45617C8.14991 9.37835 8.21471 9.40937 8.27595 9.26633C8.30301 9.25599 8.33009 9.24543 8.35745 9.23497C8.37957 9.26111 8.40137 9.28711 8.42287 9.31325ZM8.40551 8.93679C8.33905 8.88879 8.27217 8.84079 8.20573 8.79257C8.35969 8.85163 8.32407 8.81559 8.40551 8.93679ZM7.98859 12.9953C8.06103 13.0535 8.13319 13.1115 8.20573 13.1692C8.09453 13.1663 8.03555 13.1424 7.98859 12.9953ZM8.64001 12.987C8.61075 12.9898 8.58111 12.9925 8.55161 12.9953C8.52633 12.9483 8.50093 12.9014 8.47565 12.8543C8.45803 12.8314 8.44027 12.8083 8.42287 12.7853C8.46203 12.7814 8.50117 12.7777 8.54043 12.7741C8.57359 12.8452 8.60663 12.9161 8.64001 12.987ZM8.52015 8.89123C8.48779 8.85805 8.45501 8.82531 8.42287 8.79257C8.51841 8.85959 8.45501 8.79413 8.52015 8.89123ZM8.53379 12.5339C8.49699 12.4567 8.45977 12.3796 8.42287 12.3024C8.43843 12.239 8.45421 12.1759 8.46989 12.1124C8.47893 12.1119 8.48807 12.1112 8.49733 12.1105C8.54467 12.2579 8.59255 12.4054 8.64001 12.5529C8.60497 12.5466 8.56959 12.5402 8.53379 12.5339ZM7.96477 15.1076C7.97281 15.1175 7.98065 15.1273 7.98859 15.1372C7.96265 15.2343 7.93673 15.3316 7.91079 15.4285C7.75097 15.3644 7.58743 15.1984 7.55431 14.9861C7.69137 15.0266 7.82801 15.0669 7.96477 15.1076ZM7.33715 15.4285C7.40973 15.4929 7.48173 15.5575 7.55431 15.6221C7.41539 15.5608 7.40689 15.5634 7.33715 15.4285ZM7.71195 13.4678C7.72041 13.5316 7.72975 13.5954 7.73823 13.6589C7.67677 13.5851 7.61575 13.5115 7.55431 13.4377C7.60663 13.4477 7.65897 13.4578 7.71195 13.4678ZM7.49733 14.502C7.44379 14.3686 7.39027 14.2349 7.33715 14.1013C7.52669 14.1748 7.67535 14.3933 7.77145 14.5437C7.68025 14.5297 7.58879 14.516 7.49733 14.502ZM7.66791 10.5639C7.68571 10.5632 7.70417 10.5627 7.72197 10.5622C7.66899 10.6359 7.61645 10.7095 7.56325 10.7833C7.53697 10.7288 7.56867 10.6764 7.65705 10.6123C7.66031 10.596 7.66421 10.58 7.66791 10.5639ZM7.55431 12.4651C7.53995 12.4944 7.52527 12.5235 7.51077 12.5529C7.46913 12.5204 7.42777 12.4881 7.38599 12.4556C7.36973 12.4206 7.35333 12.3854 7.33715 12.3505C7.39399 12.3442 7.45053 12.338 7.50737 12.3317C7.52317 12.3762 7.53873 12.4206 7.55431 12.4651ZM6.03431 14.3225C6.46963 14.6072 7.20867 14.8709 7.33715 15.4285C6.83265 15.1875 6.34087 14.7537 6.03431 14.3225ZM7.16273 14.1089C7.22083 14.1801 7.27917 14.2513 7.33715 14.3225C7.19247 14.2488 7.04755 14.1751 6.90287 14.1013C6.98957 14.1038 7.07637 14.1064 7.16273 14.1089ZM8.75281 14.7649C8.64293 14.6539 8.53289 14.5427 8.42287 14.4315C8.61505 14.2477 8.80775 14.0641 8.99993 13.8801C9.02477 14.0823 9.04961 14.2846 9.07431 14.4868C8.96719 14.5794 8.86007 14.6723 8.75281 14.7649ZM9.07431 15.1346C9.09377 15.0865 9.11265 15.0385 9.13197 14.9904C9.15739 14.9888 9.18265 14.9874 9.20851 14.9861C9.23635 15.0598 9.26375 15.1335 9.29145 15.2073C9.21917 15.183 9.14659 15.1589 9.07431 15.1346ZM9.36701 14.3225C9.34183 14.2488 9.31685 14.1752 9.29145 14.1013C9.34443 14.1112 9.39719 14.1208 9.44887 14.1307C9.42195 14.1945 9.39437 14.2587 9.36701 14.3225ZM9.07431 6.87409C9.07497 6.86767 9.07557 6.86125 9.07649 6.85469C9.14829 6.83705 9.21965 6.81951 9.29145 6.80179C9.24137 6.87553 9.19121 6.94925 9.14129 7.02299C9.11899 6.97339 9.09661 6.92369 9.07431 6.87409ZM6.88507 11.4469C6.81841 11.2993 6.75195 11.1519 6.68573 11.0045C6.94087 11.0608 6.90005 11.2433 6.88507 11.4469ZM6.35299 11.6681C6.16759 11.5385 6.04883 11.2812 6.03431 11.0045C6.41519 11.0952 6.39459 11.2459 6.46859 11.5952C6.43001 11.6195 6.39157 11.6439 6.35299 11.6681ZM6.12857 10.5139C5.85179 10.251 6.25527 9.19771 6.43271 8.95563C6.52601 8.83651 6.64425 8.83865 6.80013 8.79257C6.83451 8.80143 6.86835 8.81055 6.90287 8.81939C6.64201 9.28373 6.46555 9.91553 6.40325 10.5622C6.31165 10.5459 6.22033 10.5299 6.12857 10.5139ZM5.72339 14.1013C5.76767 14.176 5.81195 14.2507 5.85623 14.3257C5.81691 14.4184 5.77709 14.5111 5.73741 14.6039C5.71445 14.6282 5.69189 14.6523 5.66919 14.6766C5.76605 14.6904 5.78777 14.6063 5.93375 14.4872C6.21469 14.9464 6.64533 15.3846 7.12001 15.6343C7.03369 15.7868 6.94687 15.9394 6.86065 16.0921C6.59895 15.9228 6.33811 15.7536 6.07651 15.5843C5.98659 15.4173 6.11063 15.2255 5.96625 15.1232C5.83589 15.0305 5.66721 15.1646 5.53435 15.1243C5.41157 15.011 5.28853 14.8977 5.16573 14.7846C5.27377 14.5416 5.37807 14.3032 5.59265 14.179C5.63643 14.153 5.67973 14.127 5.72339 14.1013ZM4.97249 11.6623C4.99999 11.4447 5.04689 11.2199 5.09997 11.0071C5.10991 11.0063 5.11963 11.0055 5.12959 11.0045C5.16725 11.2239 5.20493 11.4431 5.24283 11.6623C5.26261 11.7769 5.28205 11.8915 5.30183 12.006C5.47349 12.4831 5.64527 12.9606 5.81715 13.4377C5.40501 13.211 5.14949 12.6873 5.18609 11.9828C5.08705 12.2103 5.16951 12.5677 5.20209 12.7678C4.94821 12.5521 4.91563 12.123 4.97249 11.6623ZM4.59607 11.8893C4.55847 11.8115 4.53397 11.7251 4.52245 11.6229C4.51021 11.5178 4.51193 11.3962 4.52641 11.2509C4.53867 11.2242 4.55117 11.1979 4.56367 11.1716C4.61971 11.116 4.67563 11.0603 4.73145 11.0045C4.69989 11.2106 4.66833 11.4168 4.63667 11.6229C4.62331 11.7118 4.60957 11.8004 4.59607 11.8893ZM19.7143 14.1013C19.5697 14.0454 19.425 13.9892 19.28 13.9331C19.4206 13.9156 19.561 13.8977 19.7016 13.8801C19.7056 13.9538 19.71 14.0276 19.7143 14.1013ZM8.22289 17.7015C8.26067 17.681 8.29911 17.6606 8.33689 17.6405C8.29367 17.7137 8.24915 17.788 8.20573 17.8612C8.21137 17.8082 8.21723 17.7546 8.22289 17.7015ZM4.94859 10.1198C4.88709 10.1137 4.82535 10.1077 4.76337 10.1016C4.53359 10.0262 4.31673 9.75637 4.29715 9.45617C4.64979 9.48803 4.76901 9.65577 4.94331 9.86065C4.94507 9.94689 4.94709 10.0332 4.94859 10.1198ZM4.92297 10.1013C4.94821 9.62407 4.58547 9.32611 4.11457 9.33891C4.19535 8.66789 4.77543 8.32525 5.29273 8.09989C5.32603 8.09741 5.35883 8.09493 5.39213 8.09245C5.30541 8.93423 5.37125 9.65927 5.05807 10.3875C4.82685 10.9241 4.00723 10.9141 4.05203 11.7412C4.05309 11.7636 4.05481 11.7869 4.05745 11.8107C4.17433 12.9113 5.36557 13.1351 5.53041 14.103C3.76477 15.005 5.91697 18.7977 7.31365 16.5699C7.56351 16.6061 7.78667 16.7202 8.09773 16.6102C8.24221 16.5299 8.27091 16.4647 8.32709 16.2972C8.49327 16.3836 8.65983 16.4699 8.82601 16.5563C8.83473 16.5773 8.84347 16.5988 8.85245 16.6201C8.39477 16.9765 8.07235 17.4656 7.58135 17.8004C7.59669 17.7551 7.61243 17.7096 7.62815 17.665C7.58505 17.6574 7.54223 17.6494 7.49913 17.6417C7.47613 17.6545 7.45259 17.6673 7.42945 17.6799C7.40805 17.7799 7.38715 17.8806 7.36547 17.9805C7.64573 18.268 8.49617 17.2271 8.74523 17.0227C8.60419 17.5177 8.25649 17.7721 8.06335 18.2249C8.08291 18.2455 8.10301 18.2661 8.12285 18.2865C8.48957 18.0223 8.93931 17.2754 9.00765 16.707C9.19049 16.7374 9.37357 16.7676 9.55681 16.7981C8.86831 17.7337 7.09989 19.7907 6.17039 20.3395C6.31119 19.8931 6.53725 19.5523 6.65067 19.1856C6.62833 19.1871 6.60625 19.1885 6.58457 19.1902C6.56475 19.1696 6.54479 19.1491 6.52483 19.1288C6.29889 19.5765 5.92569 19.8904 5.85919 20.4941C5.90639 20.5679 5.95677 20.6075 6.00753 20.6475C7.11323 20.4623 8.95887 17.6705 9.84117 16.9083C9.60255 19.3162 8.31811 19.6921 7.20419 21.1511C8.21631 20.6437 8.83051 19.3493 9.69693 18.6301C9.60109 19.6368 9.36287 21.8863 8.76295 22.2857C8.79601 22.2829 8.82905 22.2809 8.86237 22.2783C9.53433 21.8583 9.57387 20.1309 9.79781 19.2479C9.82953 18.9381 9.86153 18.6288 9.89325 18.3197C10.2133 17.8678 10.5335 17.4161 10.8535 16.9649C10.8769 16.9523 10.8999 16.9394 10.9232 16.927C11.0306 17.2657 11.5168 17.6331 12.0436 17.5345C12.1697 17.4813 12.2956 17.4282 12.421 17.3751C12.7378 17.494 13.0539 17.6128 13.3698 17.7319C13.4943 19.1029 13.4465 19.8717 12.5827 20.9159C13.4653 20.4627 13.7897 18.7156 13.4958 17.7886C15.5483 18.0274 15.4662 17.3312 15.0765 15.8289C15.1969 15.8306 15.3172 15.8328 15.4377 15.835C15.3714 15.7344 15.1913 15.8091 15.0538 15.732C14.9914 15.6915 15.0037 15.6991 14.9647 15.6397C15.453 15.0864 16.6279 15.636 16.3818 16.5542C16.7191 15.7925 15.9727 15.1158 15.2534 15.3879C15.5606 15.0222 15.9326 14.7216 16.1271 14.2373C16.1506 14.2246 16.1735 14.2118 16.197 14.1993C16.7598 14.7934 17.3234 15.3879 17.8864 15.9819C17.9192 15.9796 17.9526 15.977 17.9858 15.9747C18.0115 15.9399 18.0367 15.9051 18.062 15.8702C17.5258 15.2304 16.9886 14.5898 16.4523 13.95C16.5097 13.9236 16.567 13.8974 16.6251 13.8712C16.718 13.7825 16.8202 13.7531 16.9227 13.767C16.8927 13.752 16.864 13.7375 16.837 13.7239C17.7003 13.8111 18.8016 14.5335 19.7019 14.3007C19.785 14.1558 19.7886 14.077 19.7388 13.9361C20.6976 13.9604 22.4226 13.638 22.9714 13.1697C21.4968 13.4812 19.8343 13.5868 18.4794 13.4045C18.079 13.3576 17.6791 13.3105 17.2789 13.2634C17.2567 13.2651 17.2345 13.2666 17.212 13.2684C17.3197 13.0741 17.4273 12.8794 17.5349 12.685C18.5249 12.6667 21.1194 12.6415 21.6442 12.0179C21.6056 11.9661 21.567 11.9139 21.5288 11.862C21.3778 11.8403 21.2266 11.8187 21.0758 11.7968C21.0368 11.8547 21.0314 11.91 21.0252 11.9654C21.1448 11.9783 21.2636 11.9913 21.3828 12.0045C20.605 12.2014 18.4389 12.6168 17.7313 12.3742C17.6569 12.2837 17.7119 11.9686 17.7152 11.7414C17.7163 11.6965 17.7149 11.6548 17.7104 11.6192C18.7269 11.3138 19.4818 10.627 19.7913 9.58929C19.9683 8.99597 19.8509 8.21565 20.2334 7.84565C20.4776 7.86709 20.5268 7.97049 20.7062 8.04089C20.6112 7.90835 20.476 7.83493 20.3064 7.77443C20.1998 7.84813 20.094 7.92183 19.9881 7.99539C19.697 8.10855 19.3923 7.81251 18.8989 8.04337C18.4982 7.69893 18.2718 7.15415 17.7305 6.94585C17.7119 6.91421 17.693 6.88273 17.6746 6.85125C17.8939 6.63729 18.1126 6.42375 18.3319 6.21007C18.1163 6.39075 17.8974 6.60443 17.678 6.81797C17.5318 6.75211 17.3848 6.68611 17.238 6.62051C17.2298 6.59893 17.2209 6.57789 17.212 6.55659C17.7132 6.19977 18.1583 6.06735 18.7292 6.18079C18.7561 6.23345 18.7842 6.28625 18.8115 6.33905C18.7848 6.38511 18.7613 6.39749 18.7384 6.41027C18.6746 6.39309 18.6101 6.37605 18.5463 6.35857C18.6291 6.40753 18.7153 6.42307 18.8012 6.43861C18.8253 6.41467 18.8497 6.39103 18.8737 6.36737C18.8774 6.33411 18.8809 6.30111 18.8846 6.26783C18.76 6.15617 18.7219 6.07587 18.4775 6.06777C18.5163 6.00987 18.5553 5.95227 18.5943 5.89465C18.3141 6.08785 17.7464 6.13941 17.4676 6.30729C17.682 6.13775 17.8966 5.96821 18.1111 5.79881C18.1365 5.76417 18.162 5.72925 18.1877 5.69459C17.7908 5.93219 17.3942 6.17021 16.9975 6.40807C16.7434 6.39021 16.4732 6.27099 16.3362 6.12799C16.3143 6.12965 16.2925 6.13129 16.2699 6.13295C16.7413 5.81285 17.212 5.49273 17.6828 5.17277C17.6751 5.14033 17.6677 5.10801 17.6602 5.07557C17.1239 5.38961 16.5879 5.70353 16.0523 6.01771C15.8811 5.97537 15.7103 5.93329 15.5395 5.89095C15.5551 5.73639 15.5712 5.58171 15.5869 5.42701C16.8144 4.45847 18.0421 3.48991 19.2693 2.52149C19.2911 2.51971 19.3134 2.51819 19.3356 2.51669C19.3177 2.47405 19.3003 2.43143 19.2829 2.38881C19.1463 2.32321 18.586 2.78013 18.3743 2.91695C17.5592 3.44261 16.8382 4.09657 16.0361 4.57121C16.3672 4.14867 16.9736 3.72793 17.0734 3.11219C17.0194 3.10533 16.965 3.09831 16.911 3.09143C16.8273 3.16335 16.7434 3.23553 16.6589 3.30759C16.7508 3.26785 16.8424 3.22825 16.9339 3.18837C16.7562 3.72985 15.9521 4.69881 15.4991 5.00585C15.4814 4.96309 15.464 4.92087 15.4465 4.87811C15.7415 4.37871 16.0322 3.70839 15.8955 3.06805C15.8129 3.01939 15.7301 2.97071 15.6475 2.92189C15.5593 2.92863 15.4711 2.93523 15.3827 2.94169C15.5524 3.00921 15.6676 3.02585 15.7922 3.10863C15.8722 3.72943 15.5678 4.14909 15.4042 4.65097C15.3806 4.66361 15.3577 4.67627 15.3344 4.68919C15.225 4.48651 15.232 4.38833 15.0078 4.35135C15.001 4.30803 14.9947 4.26459 14.9883 4.22113C15.0391 4.15143 15.0903 4.08213 15.1413 4.01255C15.1766 3.98779 15.2117 3.96319 15.2473 3.93871C15.2831 4.00623 15.2847 3.98243 15.2964 4.09959C15.3351 4.04197 15.3406 3.98669 15.3461 3.93129C15.3048 3.91259 15.2626 3.89375 15.221 3.87505C15.1102 3.99275 14.9997 4.11073 14.8892 4.22857C14.6114 4.04197 14.3067 3.84645 13.9173 3.77439C14.1375 3.31335 14.8091 2.57333 14.462 1.99005C14.0394 1.28069 12.5954 2.09855 12.0667 2.66119C11.9959 2.73709 11.9409 2.80831 11.9077 2.87075C11.9414 2.84325 11.996 2.80007 12.0667 2.74727C12.5884 2.35595 13.9783 1.42039 14.2793 2.16825C14.5952 2.58585 13.9902 3.38899 13.825 3.71541C13.2621 3.65807 12.6731 3.60389 12.0675 3.61599C11.4561 3.62851 10.827 3.70813 10.1903 3.91947C9.88255 4.02163 8.57299 4.80991 8.52301 4.80001C8.32405 4.60669 8.12469 4.41281 7.92547 4.21921C7.50931 4.00897 7.09261 3.79859 6.67633 3.58835C6.67381 3.61035 6.67183 3.63235 6.66971 3.65463C6.64525 3.67843 6.62067 3.70207 6.59661 3.72585C7.13003 4.17961 7.66411 4.63363 8.19727 5.08753C8.11583 5.13757 8.03427 5.18735 7.95257 5.23741C7.29421 4.73581 6.84039 4.43123 5.86025 4.17535C5.80527 4.17947 5.75001 4.18347 5.69501 4.18759C6.26743 4.58373 6.84355 4.94673 7.41941 5.30973C7.45789 5.36171 7.49623 5.41367 7.53483 5.46579C7.12369 5.64027 6.94985 6.00135 6.60229 6.22589C6.05961 5.96519 5.55753 5.72979 4.89997 5.52959C4.88463 5.57469 4.86877 5.61979 4.85343 5.66489C5.26417 5.93041 5.67479 6.19605 6.08553 6.46171C6.10761 6.46005 6.12967 6.45841 6.15163 6.45689C6.08089 6.50585 6.01017 6.55507 5.93971 6.60415C5.84121 6.93621 5.64887 7.32081 5.48905 7.78913C4.87511 8.29143 4.07913 8.26131 3.95567 9.28487C3.75987 9.33891 3.62067 9.35595 3.44221 9.48741C3.43757 9.53167 3.43321 9.57595 3.42859 9.62009C3.54055 9.77849 4.53813 10.2023 4.77675 10.2438C4.82579 10.1962 4.87445 10.1486 4.92297 10.1013ZM12.2081 3.02467C12.2388 3.03031 12.2685 3.03579 12.2989 3.04143C12.2582 3.03649 12.2175 3.03131 12.1768 3.02629C12.1559 3.02737 12.1352 3.02835 12.1143 3.02943C12.2103 2.84897 12.4933 2.80455 12.7657 2.82471C12.7595 2.86787 12.7533 2.91113 12.7466 2.95419C12.5694 2.96333 12.3917 2.97237 12.2145 2.98133C12.2126 2.99585 12.2103 3.01017 12.2081 3.02467ZM12.5885 3.26263C12.6739 3.23429 12.7595 3.20611 12.8447 3.17793C12.9552 2.99307 13.0183 2.79725 12.9618 2.61753C12.6987 2.56523 12.5466 2.63001 12.2998 2.73395C12.2551 2.80741 12.2103 2.88127 12.1662 2.95485C12.149 2.98317 12.1314 3.01151 12.1143 3.03995C12.1314 3.05921 12.148 3.07601 12.1662 3.09119C12.2494 3.16057 12.3503 3.18457 12.5356 3.16925C12.586 3.25625 12.5277 3.21763 12.4358 3.24215C12.4866 3.24879 12.5375 3.25585 12.5885 3.26263ZM18.9038 5.25341C18.8119 5.27077 18.7201 5.28813 18.6286 5.30521C18.6851 5.30141 18.7418 5.29749 18.798 5.29327C18.8627 5.32107 18.9272 5.34915 18.9914 5.37683C18.8936 5.55707 18.7958 5.73703 18.698 5.91699C18.8487 5.73811 18.9991 5.61091 19.0629 5.33925C19.0096 5.31051 18.9567 5.28203 18.9038 5.25341ZM17.3257 13.8801C17.257 13.7584 17.1825 13.6778 17.1086 13.6589C17.1746 13.7214 17.2507 13.7945 17.3257 13.8801ZM16.4571 16.5345C16.3849 16.577 16.3123 16.6192 16.24 16.661C16.2956 16.6557 16.3512 16.6504 16.4069 16.6453C16.4239 16.6082 16.4408 16.5714 16.4571 16.5345ZM17.3257 13.8801C17.5463 14.1309 17.7122 14.6107 17.6642 14.9861C17.9146 14.4417 17.6289 14.1023 17.3257 13.8801Z"></path>
</svg>
