<?xml version="1.0" encoding="utf-8"?>
<svg width="24" height="24" viewBox="0 0 24 24" fill="rgba(25, 76, 184, 1)" xmlns="http://www.w3.org/2000/svg">
    <path d="M3.89575 4V10.123C4.828 9.0115 5.9455 8.452 7.2415 8.452C7.909 8.452 8.50675 8.5795 9.043 8.83225C9.58075 9.0835 9.98275 9.406 10.2543 9.7975C10.5273 10.1927 10.7118 10.6255 10.8115 11.1025C10.9105 11.5772 10.96 12.316 10.96 13.318V19.8647H8.0635V13.9682C8.0635 12.7982 8.011 12.0573 7.90075 11.7423C7.79746 11.4337 7.59254 11.1693 7.3195 10.9923C7.0405 10.804 6.69325 10.711 6.274 10.711C5.794 10.711 5.3635 10.831 4.98925 11.0695C4.60675 11.3095 4.33225 11.668 4.15825 12.1472C3.98125 12.6272 3.89275 13.336 3.89575 14.2742L3.89275 19.8647H1V4H3.8965M15.301 4V10.123C16.234 9.0115 17.3508 8.452 18.646 8.452C19.3113 8.452 19.9135 8.5795 20.4505 8.83225C20.986 9.0835 21.388 9.406 21.658 9.7975C21.9305 10.1901 22.1201 10.6342 22.2153 11.1025C22.315 11.5772 22.3645 12.316 22.3645 13.318V19.8647H19.471V13.9682C19.471 12.7982 19.4162 12.0573 19.306 11.7423C19.2027 11.4333 18.9971 11.1687 18.7232 10.9923C18.4472 10.804 18.097 10.711 17.6778 10.711C17.1985 10.711 16.768 10.831 16.393 11.0695C16.0158 11.3095 15.7398 11.668 15.5635 12.1472C15.3895 12.6272 15.301 13.336 15.301 14.2742V19.8647H12.4083V4H15.301Z"></path>
</svg>
