<?xml version="1.0" encoding="utf-8"?>
<svg viewBox="0 0 351 39" fill="#fff" xmlns="http://www.w3.org/2000/svg">
    <path d="M96.947 0h14.96c8.86 0 14.381 4.995 14.381 12.616v.128c0 8.453-6.805 12.936-15.152 12.936h-7.512v12.167h-6.677V0zm14.446 19.66c5.008 0 8.154-2.818 8.154-6.724v-.128c0-4.419-3.21-6.724-8.154-6.724h-7.769v13.64h7.769v-.064zM131.488 0h6.613v37.783h-6.613V0zM143.494 29.586v-.128c0-6.148 4.88-9.157 11.878-9.157 3.21 0 5.457.512 7.704 1.216v-.704c0-4.035-2.504-6.212-7.126-6.212-3.211 0-5.586.704-8.154 1.793l-1.798-5.123c3.21-1.409 6.292-2.305 10.85-2.305 4.302 0 7.448 1.152 9.503 3.202 2.118 2.049 3.081 5.059 3.081 8.773v16.842h-6.42v-3.586c-1.926 2.305-4.944 4.163-9.31 4.163-5.393.064-10.208-3.01-10.208-8.774zm19.646-2.05v-1.92c-1.669-.64-3.916-1.153-6.484-1.153-4.238 0-6.742 1.793-6.742 4.739v.128c0 2.754 2.44 4.29 5.586 4.29 4.366.065 7.64-2.433 7.64-6.083zM178.292 29.906V14.921h-3.659V9.286h3.659V1.473h6.549v7.813h7.705v5.635h-7.705v13.96c0 2.562 1.284 3.587 3.531 3.587 1.477 0 2.761-.32 4.045-.96v5.379c-1.605.896-3.403 1.473-5.907 1.473-4.815-.064-8.218-2.178-8.218-8.454zM84.17 31.251H0v6.596h84.17v-6.596zM60.095 11.27v12.425h7.576v-6.98h7.64c3.98 0 7.383-2.242 8.667-5.38H60.095v-.064zM81.602 2.305a8.379 8.379 0 00-5.65-2.177H59.71c.064.64.128 1.217.257 1.857.064.128.064.256.128.384 0 .064 0 .129.064.129a10.518 10.518 0 0010.08 7.364h13.997c.064-.448.128-.96.128-1.473a8.117 8.117 0 00-2.76-6.084zM46.676 2.562L41.41 14.025h-.514V.064h-7.576v23.63h6.356c1.67 0 3.21-.96 3.917-2.497l5.264-11.463h.578v13.96h7.512V.065h-6.356c-1.67 0-3.21 1.025-3.916 2.498zM11.62 3.202l3.147 10.823h.513l3.146-10.823c.514-1.857 2.248-3.074 4.11-3.074h7.511v23.567H22.6V9.734h-.514l-4.366 13.96h-5.393L8.025 9.735h-.513v13.96H0V.065h7.512a4.256 4.256 0 014.109 3.138zM216.815 0H245v6.02h-21.572v10.31h19.133v6.084h-19.133v15.37h-6.677V0h.064zM247.953 24.27v-.127c0-8.133 6.485-14.921 15.281-14.921 8.795 0 15.216 6.66 15.216 14.793v.128c0 8.133-6.485 14.857-15.345 14.857-8.667 0-15.152-6.596-15.152-14.73zm23.948 0v-.127c0-4.995-3.66-9.158-8.796-9.158-5.265 0-8.603 4.099-8.603 9.094v.128c0 4.995 3.659 9.157 8.732 9.157 5.328-.063 8.667-4.162 8.667-9.093zM285.063 9.286h6.613v6.404c1.798-4.291 5.073-7.173 10.145-6.98v6.916h-.386c-5.714 0-9.759 3.714-9.759 11.27v10.887h-6.613V9.286zM307.406 9.286h6.613v4.29c1.862-2.561 4.302-4.93 8.732-4.93 4.109 0 7.062 1.984 8.539 4.994 2.247-3.01 5.329-4.995 9.63-4.995 6.228 0 10.016 3.97 10.016 10.887v18.187h-6.549V21.581c0-4.546-2.118-6.98-5.778-6.98-3.595 0-6.099 2.498-6.099 7.108v16.074h-6.549V21.581c0-4.418-2.183-6.916-5.778-6.916-3.596 0-6.1 2.69-6.1 7.108v16.074h-6.613V9.286h-.064zM207.634 31.251h-6.677v6.596h6.677v-6.596z"></path>
</svg>