<?xml version="1.0" encoding="utf-8"?>
<svg width="24" height="24" viewBox="0 0 24 24" fill="rgba(25, 76, 184, 1)" xmlns="http://www.w3.org/2000/svg">
    <path fill-rule="evenodd" clip-rule="evenodd"
          d="M20.9336 7.15625C21.0727 6.71563 20.9336 6.39531 20.3184 6.39531H18.2727C17.7566 6.39531 17.5184 6.67578 17.3793 6.97578C17.3793 6.97578 16.327 9.53828 14.8574 11.1996C14.3809 11.6801 14.1625 11.8402 13.9043 11.8402C13.7652 11.8402 13.5863 11.6801 13.5863 11.2398V7.13555C13.5863 6.61523 13.4277 6.375 12.9906 6.375H9.77344C9.45547 6.375 9.25703 6.61523 9.25703 6.85547C9.25703 7.35586 9.9918 7.47617 10.0711 8.87734V11.9219C10.0711 12.5824 9.95391 12.7031 9.69375 12.7031C8.99883 12.7031 7.31094 10.1207 6.29844 7.17812C6.10156 6.59531 5.90156 6.375 5.38516 6.375H3.31992C2.72422 6.375 2.625 6.65508 2.625 6.95547C2.625 7.49609 3.31992 10.2184 5.86172 13.8215C7.54961 16.2824 9.95234 17.6051 12.1168 17.6051C13.4277 17.6051 13.5863 17.3047 13.5863 16.8043V14.9426C13.5863 14.3422 13.7055 14.2422 14.1227 14.2422C14.4203 14.2422 14.9566 14.402 16.168 15.5832C17.5578 16.9844 17.7961 17.625 18.5707 17.625H20.616C21.2117 17.625 21.4898 17.3246 21.3309 16.7441C21.1523 16.1637 20.477 15.323 19.6031 14.3223C19.1266 13.7621 18.4117 13.1414 18.1934 12.841C17.8957 12.4406 17.975 12.2805 18.1934 11.9203C18.1734 11.9203 20.6758 8.35703 20.9336 7.15469"></path>
</svg>
